<svg xmlns="http://www.w3.org/2000/svg" width="1024" height="1024" viewBox="0 0 1024 1024">
<g>
<path d="M 368.50 526.00 C368.16,526.55 365.55,526.99 362.69,526.98 C358.97,526.97 357.92,526.69 359.00,526.00 C361.02,524.70 369.31,524.70 368.50,526.00 ZM 804.55 191.21 C804.85,191.52 804.03,193.02 802.71,194.55 C801.34,196.14 800.05,196.89 799.69,196.31 C799.00,195.19 803.65,190.32 804.55,191.21 ZM 307.50 410.00 C307.86,410.58 306.84,411.00 305.06,411.00 C303.38,411.00 302.00,410.55 302.00,410.00 C302.00,409.45 303.10,409.00 304.44,409.00 C305.78,409.00 307.16,409.45 307.50,410.00 ZM 258.00 433.01 C258.00,434.55 255.15,434.84 254.58,433.36 C253.75,431.18 253.79,431.13 256.00,431.71 C257.10,432.00 258.00,432.58 258.00,433.01 ZM 307.00 359.00 C307.00,359.55 305.54,359.99 303.75,359.98 C301.28,359.97 300.86,359.74 302.00,359.00 C303.97,357.73 307.00,357.73 307.00,359.00 ZM 348.50 739.00 C348.85,739.56 348.03,740.00 346.62,740.00 C345.24,740.00 343.84,739.55 343.50,739.00 C343.15,738.44 343.97,738.00 345.38,738.00 C346.76,738.00 348.16,738.45 348.50,739.00 ZM 435.50 713.00 C435.16,713.55 434.01,714.00 432.94,714.00 C431.87,714.00 431.00,713.55 431.00,713.00 C431.00,712.45 432.15,712.00 433.56,712.00 C435.01,712.00 435.85,712.43 435.50,713.00 ZM 306.50 370.00 C306.85,370.57 305.99,371.00 304.50,371.00 C303.01,371.00 302.15,370.57 302.50,370.00 C302.84,369.45 303.74,369.00 304.50,369.00 C305.26,369.00 306.16,369.45 306.50,370.00 Z" fill="rgb(85,92,98)"/>
<path d="M 312.00 611.33 C312.00,634.25 311.83,653.00 311.62,653.00 C311.41,653.00 310.93,648.39 310.54,642.75 C309.87,632.83 310.76,570.93 311.59,570.08 C311.82,569.85 312.00,588.42 312.00,611.33 ZM 312.00 311.95 C330.06,312.58 328.86,312.65 295.75,312.82 C272.46,312.94 260.00,312.65 260.00,312.00 C260.00,310.88 280.90,310.86 312.00,311.95 ZM 508.79 310.46 C509.09,310.76 498.46,311.00 485.17,311.00 C468.65,311.00 461.00,310.66 461.00,309.93 C461.00,308.83 507.68,309.34 508.79,310.46 ZM 682.00 643.87 C682.00,644.67 676.27,645.00 662.33,645.00 C651.52,645.00 642.86,644.80 643.10,644.57 C643.34,644.33 652.19,643.82 662.77,643.44 C676.79,642.93 682.00,643.05 682.00,643.87 ZM 272.33 505.93 C273.09,506.69 265.98,506.95 247.95,506.84 L 222.50 506.69 L 246.88 505.78 C263.97,505.14 271.59,505.19 272.33,505.93 ZM 428.89 731.25 C428.96,740.49 428.63,746.00 428.00,746.00 C426.79,746.00 426.74,726.30 427.94,720.50 C428.54,717.63 428.80,720.66 428.89,731.25 ZM 428.00 311.08 C428.00,311.41 422.60,311.78 416.00,311.90 C408.12,312.05 404.00,311.77 404.00,311.07 C404.00,310.38 408.12,310.10 416.00,310.25 C422.60,310.38 428.00,310.75 428.00,311.08 ZM 375.50 311.82 L 384.50 312.73 L 371.31 312.86 C358.98,312.99 355.29,312.27 357.54,310.18 C357.94,309.81 358.44,309.96 358.65,310.53 C358.85,311.09 360.70,311.41 362.76,311.24 C364.82,311.06 370.55,311.33 375.50,311.82 ZM 260.00 666.95 C263.59,667.59 262.24,667.77 253.25,667.87 C246.33,667.95 242.00,667.61 242.00,667.00 C242.00,665.82 253.47,665.79 260.00,666.95 ZM 280.00 479.42 C280.00,482.49 279.77,485.00 279.50,485.00 C278.84,485.00 278.84,484.99 278.42,481.50 C278.22,479.85 277.94,477.65 277.78,476.61 C277.63,475.57 278.06,474.52 278.75,474.27 C279.65,473.96 280.00,475.38 280.00,479.42 ZM 194.00 726.00 C195.04,726.67 193.19,726.95 188.00,726.91 C182.89,726.88 181.14,726.59 182.50,726.00 C185.25,724.82 192.17,724.82 194.00,726.00 ZM 454.76 518.75 C454.98,519.44 454.79,519.92 454.33,519.83 C453.88,519.74 451.81,519.49 449.75,519.27 C447.69,519.06 446.00,518.43 446.00,517.88 C446.00,516.44 454.27,517.26 454.76,518.75 ZM 280.00 389.00 C280.00,391.75 279.55,394.00 279.00,394.00 C278.45,394.00 278.00,391.75 278.00,389.00 C278.00,386.25 278.45,384.00 279.00,384.00 C279.55,384.00 280.00,386.25 280.00,389.00 ZM 600.00 310.02 C600.00,313.21 599.28,313.90 598.39,311.56 C598.08,310.77 597.20,310.37 596.42,310.67 C593.92,311.63 594.90,309.36 597.50,308.18 C599.86,307.11 600.00,307.21 600.00,310.02 ZM 443.00 532.50 C440.54,535.11 439.77,535.44 438.67,534.33 C437.46,533.13 437.97,531.78 439.43,532.33 C440.21,532.63 441.39,532.23 442.05,531.44 C442.71,530.65 443.72,530.00 444.30,530.00 C444.88,530.00 444.29,531.12 443.00,532.50 ZM 248.00 406.00 C248.00,408.20 247.55,410.00 247.00,410.00 C246.45,410.00 246.00,408.20 246.00,406.00 C246.00,403.80 246.45,402.00 247.00,402.00 C247.55,402.00 248.00,403.80 248.00,406.00 ZM 366.00 738.00 C366.00,738.55 364.20,739.00 362.00,739.00 C359.80,739.00 358.00,738.55 358.00,738.00 C358.00,737.45 359.80,737.00 362.00,737.00 C364.20,737.00 366.00,737.45 366.00,738.00 ZM 569.00 359.00 C568.17,359.53 565.25,359.92 562.50,359.87 L 557.50 359.77 L 561.50 358.94 C563.70,358.49 566.62,358.10 568.00,358.07 C569.97,358.04 570.18,358.24 569.00,359.00 ZM 269.88 448.25 C269.95,449.21 269.50,450.00 268.89,450.00 C268.28,450.00 268.07,449.27 268.41,448.37 C268.75,447.48 268.53,446.13 267.91,445.39 C267.26,444.61 267.11,443.26 267.55,442.26 C268.18,440.81 268.44,441.02 269.04,443.50 C269.44,445.15 269.82,447.29 269.88,448.25 ZM 279.00 437.50 C279.00,439.42 278.55,441.00 278.00,441.00 C277.45,441.00 277.00,439.42 277.00,437.50 C277.00,435.58 277.45,434.00 278.00,434.00 C278.55,434.00 279.00,435.58 279.00,437.50 ZM 531.50 501.00 C531.16,501.55 529.56,502.00 527.94,502.00 C526.32,502.00 525.00,501.55 525.00,501.00 C525.00,500.45 526.60,500.00 528.56,500.00 C530.68,500.00 531.87,500.40 531.50,501.00 ZM 176.00 486.50 C176.00,490.29 175.56,490.90 174.61,488.42 C173.67,485.98 173.89,483.00 175.00,483.00 C175.55,483.00 176.00,484.58 176.00,486.50 ZM 755.00 439.10 C755.00,439.60 753.42,440.00 751.50,440.00 C749.58,440.00 748.00,439.60 748.00,439.10 C748.00,438.61 749.58,438.20 751.50,438.20 C753.42,438.20 755.00,438.61 755.00,439.10 ZM 773.00 507.00 C771.03,508.27 767.00,508.27 767.00,507.00 C767.00,506.45 768.69,506.01 770.75,506.02 C773.54,506.03 774.12,506.28 773.00,507.00 ZM 764.00 508.00 C764.00,508.55 762.65,509.00 761.00,509.00 C759.35,509.00 758.00,508.55 758.00,508.00 C758.00,507.45 759.35,507.00 761.00,507.00 C762.65,507.00 764.00,507.45 764.00,508.00 ZM 477.50 504.00 C477.16,504.55 475.78,505.00 474.44,505.00 C473.10,505.00 472.00,504.55 472.00,504.00 C472.00,503.45 473.38,503.00 475.06,503.00 C476.84,503.00 477.86,503.42 477.50,504.00 ZM 299.58 427.24 C299.92,427.59 299.53,428.83 298.71,430.01 C297.68,431.48 296.98,431.78 296.49,430.98 C295.69,429.70 298.57,426.23 299.58,427.24 ZM 755.00 419.00 C755.00,419.55 753.88,420.00 752.50,420.00 C751.12,420.00 750.00,419.55 750.00,419.00 C750.00,418.45 751.12,418.00 752.50,418.00 C753.88,418.00 755.00,418.45 755.00,419.00 ZM 307.00 399.00 C307.00,399.55 305.88,400.00 304.50,400.00 C303.12,400.00 302.00,399.55 302.00,399.00 C302.00,398.45 303.12,398.00 304.50,398.00 C305.88,398.00 307.00,398.45 307.00,399.00 ZM 288.29 530.00 C288.00,531.10 287.37,532.00 286.88,532.00 C286.40,532.00 286.00,531.10 286.00,530.00 C286.00,528.90 286.63,528.00 287.41,528.00 C288.32,528.00 288.63,528.70 288.29,530.00 ZM 622.39 289.42 C621.63,291.39 620.39,291.45 619.66,289.55 C619.27,288.53 619.58,288.29 620.71,288.72 C621.79,289.13 622.09,288.95 621.61,288.17 C621.21,287.53 621.36,287.00 621.94,287.00 C623.17,287.00 623.22,287.27 622.39,289.42 ZM 318.58 476.24 C318.89,476.56 318.98,478.10 318.77,479.66 L 318.39 482.50 L 317.57 479.70 C316.79,477.02 317.37,475.04 318.58,476.24 ZM 754.50 509.00 C754.16,509.55 753.01,510.00 751.94,510.00 C750.87,510.00 750.00,509.55 750.00,509.00 C750.00,508.45 751.15,508.00 752.56,508.00 C754.01,508.00 754.85,508.43 754.50,509.00 ZM 504.50 526.00 C504.85,526.57 504.01,527.00 502.56,527.00 C501.15,527.00 500.00,526.55 500.00,526.00 C500.00,525.45 500.87,525.00 501.94,525.00 C503.01,525.00 504.16,525.45 504.50,526.00 ZM 353.00 474.00 C353.00,474.55 351.54,474.97 349.75,474.93 C347.03,474.87 346.82,474.72 348.50,474.00 C351.26,472.81 353.00,472.81 353.00,474.00 ZM 576.58 645.24 C576.89,645.56 577.00,647.10 576.81,648.66 L 576.48 651.50 L 575.69 648.63 C574.93,645.86 575.40,644.06 576.58,645.24 ZM 305.50 441.00 C305.85,441.57 304.99,442.00 303.50,442.00 C302.01,442.00 301.15,441.57 301.50,441.00 C301.84,440.45 302.74,440.00 303.50,440.00 C304.26,440.00 305.16,440.45 305.50,441.00 ZM 298.00 435.00 C298.00,436.10 297.55,437.00 297.00,437.00 C296.45,437.00 296.00,436.10 296.00,435.00 C296.00,433.90 296.45,433.00 297.00,433.00 C297.55,433.00 298.00,433.90 298.00,435.00 ZM 513.00 502.00 C513.00,502.55 512.10,503.00 511.00,503.00 C509.90,503.00 509.00,502.55 509.00,502.00 C509.00,501.45 509.90,501.00 511.00,501.00 C512.10,501.00 513.00,501.45 513.00,502.00 ZM 738.00 417.00 C738.00,417.55 737.10,418.00 736.00,418.00 C734.90,418.00 734.00,417.55 734.00,417.00 C734.00,416.45 734.90,416.00 736.00,416.00 C737.10,416.00 738.00,416.45 738.00,417.00 ZM 415.50 190.00 C415.84,190.55 415.19,191.00 414.06,191.00 C412.93,191.00 412.00,190.55 412.00,190.00 C412.00,189.45 412.65,189.00 413.44,189.00 C414.23,189.00 415.16,189.45 415.50,190.00 ZM 524.00 352.80 C524.00,355.21 523.48,355.59 522.45,353.91 C522.08,353.31 522.28,352.32 522.89,351.71 C523.70,350.90 524.00,351.18 524.00,352.80 ZM 759.00 418.50 C759.00,419.33 758.55,420.00 758.00,420.00 C757.45,420.00 757.00,419.33 757.00,418.50 C757.00,417.67 757.45,417.00 758.00,417.00 C758.55,417.00 759.00,417.67 759.00,418.50 ZM 490.00 490.00 C490.00,490.55 489.33,491.00 488.50,491.00 C487.67,491.00 487.00,490.55 487.00,490.00 C487.00,489.45 487.67,489.00 488.50,489.00 C489.33,489.00 490.00,489.45 490.00,490.00 ZM 401.00 528.00 C401.00,528.55 400.33,529.00 399.50,529.00 C398.67,529.00 398.00,528.55 398.00,528.00 C398.00,527.45 398.67,527.00 399.50,527.00 C400.33,527.00 401.00,527.45 401.00,528.00 ZM 209.00 725.00 C209.00,725.55 208.32,726.00 207.50,726.00 C206.68,726.00 206.00,725.55 206.00,725.00 C206.00,724.45 206.68,724.00 207.50,724.00 C208.32,724.00 209.00,724.45 209.00,725.00 ZM 496.20 490.80 C497.13,491.73 496.87,492.00 495.00,492.00 C493.13,492.00 492.87,491.73 493.80,490.80 C494.73,489.87 495.27,489.87 496.20,490.80 ZM 502.20 491.80 C503.13,492.73 502.87,493.00 501.00,493.00 C499.13,493.00 498.87,492.73 499.80,491.80 C500.73,490.87 501.27,490.87 502.20,491.80 ZM 399.50 192.00 C399.16,192.55 398.46,193.00 397.94,193.00 C397.42,193.00 397.00,192.55 397.00,192.00 C397.00,191.45 397.70,191.00 398.56,191.00 C399.42,191.00 399.84,191.45 399.50,192.00 ZM 632.00 313.44 C632.00,314.30 631.55,315.00 631.00,315.00 C630.45,315.00 630.00,314.58 630.00,314.06 C630.00,313.54 630.45,312.84 631.00,312.50 C631.55,312.16 632.00,312.58 632.00,313.44 ZM 456.50 711.00 C456.84,711.55 456.42,712.00 455.56,712.00 C454.70,712.00 454.00,711.55 454.00,711.00 C454.00,710.45 454.42,710.00 454.94,710.00 C455.46,710.00 456.16,710.45 456.50,711.00 ZM 267.50 717.00 C267.16,717.55 266.46,718.00 265.94,718.00 C265.42,718.00 265.00,717.55 265.00,717.00 C265.00,716.45 265.70,716.00 266.56,716.00 C267.42,716.00 267.84,716.45 267.50,717.00 ZM 808.50 271.00 C808.16,271.55 807.46,272.00 806.94,272.00 C806.42,272.00 806.00,271.55 806.00,271.00 C806.00,270.45 806.70,270.00 807.56,270.00 C808.42,270.00 808.84,270.45 808.50,271.00 ZM 141.60 601.27 C141.94,601.60 142.02,602.44 141.79,603.14 C141.45,604.15 141.21,604.15 140.58,603.13 C139.75,601.78 140.59,600.25 141.60,601.27 ZM 330.00 383.00 C330.00,383.55 329.55,384.00 329.00,384.00 C328.45,384.00 328.00,383.55 328.00,383.00 C328.00,382.45 328.45,382.00 329.00,382.00 C329.55,382.00 330.00,382.45 330.00,383.00 Z" fill="rgb(142,150,154)"/>
<path d="M 0.00 512.00 L 0.00 0.00 L 512.00 0.00 L 1024.00 0.00 L 1024.00 512.00 L 1024.00 1024.00 L 512.00 1024.00 L 0.00 1024.00 L 0.00 512.00 ZM 428.89 731.25 C428.80,720.66 428.54,717.63 427.94,720.50 C426.74,726.30 426.79,746.00 428.00,746.00 C428.63,746.00 428.96,740.49 428.89,731.25 ZM 348.50 739.00 C348.16,738.45 346.76,738.00 345.38,738.00 C343.97,738.00 343.15,738.44 343.50,739.00 C343.84,739.55 345.24,740.00 346.62,740.00 C348.03,740.00 348.85,739.56 348.50,739.00 ZM 366.00 738.00 C366.00,737.45 364.20,737.00 362.00,737.00 C359.80,737.00 358.00,737.45 358.00,738.00 C358.00,738.55 359.80,739.00 362.00,739.00 C364.20,739.00 366.00,738.55 366.00,738.00 ZM 194.00 726.00 C192.17,724.82 185.25,724.82 182.50,726.00 C181.14,726.59 182.89,726.88 188.00,726.91 C193.19,726.95 195.04,726.67 194.00,726.00 ZM 209.00 725.00 C209.00,724.45 208.32,724.00 207.50,724.00 C206.68,724.00 206.00,724.45 206.00,725.00 C206.00,725.55 206.68,726.00 207.50,726.00 C208.32,726.00 209.00,725.55 209.00,725.00 ZM 267.50 717.00 C267.84,716.45 267.42,716.00 266.56,716.00 C265.70,716.00 265.00,716.45 265.00,717.00 C265.00,717.55 265.42,718.00 265.94,718.00 C266.46,718.00 267.16,717.55 267.50,717.00 ZM 435.50 713.00 C435.85,712.43 435.01,712.00 433.56,712.00 C432.15,712.00 431.00,712.45 431.00,713.00 C431.00,713.55 431.87,714.00 432.94,714.00 C434.01,714.00 435.16,713.55 435.50,713.00 ZM 456.50 711.00 C456.16,710.45 455.46,710.00 454.94,710.00 C454.42,710.00 454.00,710.45 454.00,711.00 C454.00,711.55 454.70,712.00 455.56,712.00 C456.42,712.00 456.84,711.55 456.50,711.00 ZM 260.00 666.95 C253.47,665.79 242.00,665.82 242.00,667.00 C242.00,667.61 246.33,667.95 253.25,667.87 C262.24,667.77 263.59,667.59 260.00,666.95 ZM 312.00 611.33 C312.00,588.42 311.82,569.85 311.59,570.08 C310.76,570.93 309.87,632.83 310.54,642.75 C310.93,648.39 311.41,653.00 311.62,653.00 C311.83,653.00 312.00,634.25 312.00,611.33 ZM 576.58 645.24 C575.40,644.06 574.93,645.86 575.69,648.63 L 576.48 651.50 L 576.81 648.66 C577.00,647.10 576.89,645.56 576.58,645.24 ZM 682.00 643.87 C682.00,643.05 676.79,642.93 662.77,643.44 C652.19,643.82 643.34,644.33 643.10,644.57 C642.86,644.80 651.52,645.00 662.33,645.00 C676.27,645.00 682.00,644.67 682.00,643.87 ZM 141.60 601.27 C140.59,600.25 139.75,601.78 140.58,603.13 C141.21,604.15 141.45,604.15 141.79,603.14 C142.02,602.44 141.94,601.60 141.60,601.27 ZM 443.00 532.50 C444.29,531.12 444.88,530.00 444.30,530.00 C443.72,530.00 442.71,530.65 442.05,531.44 C441.39,532.23 440.21,532.63 439.43,532.33 C437.97,531.78 437.46,533.13 438.67,534.33 C439.77,535.44 440.54,535.11 443.00,532.50 ZM 288.29 530.00 C288.63,528.70 288.32,528.00 287.41,528.00 C286.63,528.00 286.00,528.90 286.00,530.00 C286.00,531.10 286.40,532.00 286.88,532.00 C287.37,532.00 288.00,531.10 288.29,530.00 ZM 401.00 528.00 C401.00,527.45 400.33,527.00 399.50,527.00 C398.67,527.00 398.00,527.45 398.00,528.00 C398.00,528.55 398.67,529.00 399.50,529.00 C400.33,529.00 401.00,528.55 401.00,528.00 ZM 368.50 526.00 C369.31,524.70 361.02,524.70 359.00,526.00 C357.92,526.69 358.97,526.97 362.69,526.98 C365.55,526.99 368.16,526.55 368.50,526.00 ZM 504.50 526.00 C504.16,525.45 503.01,525.00 501.94,525.00 C500.87,525.00 500.00,525.45 500.00,526.00 C500.00,526.55 501.15,527.00 502.56,527.00 C504.01,527.00 504.85,526.57 504.50,526.00 ZM 454.76 518.75 C454.27,517.26 446.00,516.44 446.00,517.88 C446.00,518.43 447.69,519.06 449.75,519.27 C451.81,519.49 453.88,519.74 454.33,519.83 C454.79,519.92 454.98,519.44 454.76,518.75 ZM 754.50 509.00 C754.85,508.43 754.01,508.00 752.56,508.00 C751.15,508.00 750.00,508.45 750.00,509.00 C750.00,509.55 750.87,510.00 751.94,510.00 C753.01,510.00 754.16,509.55 754.50,509.00 ZM 764.00 508.00 C764.00,507.45 762.65,507.00 761.00,507.00 C759.35,507.00 758.00,507.45 758.00,508.00 C758.00,508.55 759.35,509.00 761.00,509.00 C762.65,509.00 764.00,508.55 764.00,508.00 ZM 773.00 507.00 C774.12,506.28 773.54,506.03 770.75,506.02 C768.69,506.01 767.00,506.45 767.00,507.00 C767.00,508.27 771.03,508.27 773.00,507.00 ZM 272.33 505.93 C271.59,505.19 263.97,505.14 246.88,505.78 L 222.50 506.69 L 247.95 506.84 C265.98,506.95 273.09,506.69 272.33,505.93 ZM 477.50 504.00 C477.86,503.42 476.84,503.00 475.06,503.00 C473.38,503.00 472.00,503.45 472.00,504.00 C472.00,504.55 473.10,505.00 474.44,505.00 C475.78,505.00 477.16,504.55 477.50,504.00 ZM 513.00 502.00 C513.00,501.45 512.10,501.00 511.00,501.00 C509.90,501.00 509.00,501.45 509.00,502.00 C509.00,502.55 509.90,503.00 511.00,503.00 C512.10,503.00 513.00,502.55 513.00,502.00 ZM 531.50 501.00 C531.87,500.40 530.68,500.00 528.56,500.00 C526.60,500.00 525.00,500.45 525.00,501.00 C525.00,501.55 526.32,502.00 527.94,502.00 C529.56,502.00 531.16,501.55 531.50,501.00 ZM 502.20 491.80 C501.27,490.87 500.73,490.87 499.80,491.80 C498.87,492.73 499.13,493.00 501.00,493.00 C502.87,493.00 503.13,492.73 502.20,491.80 ZM 496.20 490.80 C495.27,489.87 494.73,489.87 493.80,490.80 C492.87,491.73 493.13,492.00 495.00,492.00 C496.87,492.00 497.13,491.73 496.20,490.80 ZM 490.00 490.00 C490.00,489.45 489.33,489.00 488.50,489.00 C487.67,489.00 487.00,489.45 487.00,490.00 C487.00,490.55 487.67,491.00 488.50,491.00 C489.33,491.00 490.00,490.55 490.00,490.00 ZM 176.00 486.50 C176.00,484.58 175.55,483.00 175.00,483.00 C173.89,483.00 173.67,485.98 174.61,488.42 C175.56,490.90 176.00,490.29 176.00,486.50 ZM 280.00 479.42 C280.00,475.38 279.65,473.96 278.75,474.27 C278.06,474.52 277.63,475.57 277.78,476.61 C277.94,477.65 278.22,479.85 278.42,481.50 C278.84,484.99 278.84,485.00 279.50,485.00 C279.77,485.00 280.00,482.49 280.00,479.42 ZM 318.58 476.24 C317.37,475.04 316.79,477.02 317.57,479.70 L 318.39 482.50 L 318.77 479.66 C318.98,478.10 318.89,476.56 318.58,476.24 ZM 353.00 474.00 C353.00,472.81 351.26,472.81 348.50,474.00 C346.82,474.72 347.03,474.87 349.75,474.93 C351.54,474.97 353.00,474.55 353.00,474.00 ZM 269.88 448.25 C269.82,447.29 269.44,445.15 269.04,443.50 C268.44,441.02 268.18,440.81 267.55,442.26 C267.11,443.26 267.26,444.61 267.91,445.39 C268.53,446.13 268.75,447.48 268.41,448.37 C268.07,449.27 268.28,450.00 268.89,450.00 C269.50,450.00 269.95,449.21 269.88,448.25 ZM 305.50 441.00 C305.16,440.45 304.26,440.00 303.50,440.00 C302.74,440.00 301.84,440.45 301.50,441.00 C301.15,441.57 302.01,442.00 303.50,442.00 C304.99,442.00 305.85,441.57 305.50,441.00 ZM 279.00 437.50 C279.00,435.58 278.55,434.00 278.00,434.00 C277.45,434.00 277.00,435.58 277.00,437.50 C277.00,439.42 277.45,441.00 278.00,441.00 C278.55,441.00 279.00,439.42 279.00,437.50 ZM 755.00 439.10 C755.00,438.61 753.42,438.20 751.50,438.20 C749.58,438.20 748.00,438.61 748.00,439.10 C748.00,439.60 749.58,440.00 751.50,440.00 C753.42,440.00 755.00,439.60 755.00,439.10 ZM 298.00 435.00 C298.00,433.90 297.55,433.00 297.00,433.00 C296.45,433.00 296.00,433.90 296.00,435.00 C296.00,436.10 296.45,437.00 297.00,437.00 C297.55,437.00 298.00,436.10 298.00,435.00 ZM 258.00 433.01 C258.00,432.58 257.10,432.00 256.00,431.71 C253.79,431.13 253.75,431.18 254.58,433.36 C255.15,434.84 258.00,434.55 258.00,433.01 ZM 299.58 427.24 C298.57,426.23 295.69,429.70 296.49,430.98 C296.98,431.78 297.68,431.48 298.71,430.01 C299.53,428.83 299.92,427.59 299.58,427.24 ZM 755.00 419.00 C755.00,418.45 753.88,418.00 752.50,418.00 C751.12,418.00 750.00,418.45 750.00,419.00 C750.00,419.55 751.12,420.00 752.50,420.00 C753.88,420.00 755.00,419.55 755.00,419.00 ZM 759.00 418.50 C759.00,417.67 758.55,417.00 758.00,417.00 C757.45,417.00 757.00,417.67 757.00,418.50 C757.00,419.33 757.45,420.00 758.00,420.00 C758.55,420.00 759.00,419.33 759.00,418.50 ZM 738.00 417.00 C738.00,416.45 737.10,416.00 736.00,416.00 C734.90,416.00 734.00,416.45 734.00,417.00 C734.00,417.55 734.90,418.00 736.00,418.00 C737.10,418.00 738.00,417.55 738.00,417.00 ZM 307.50 410.00 C307.16,409.45 305.78,409.00 304.44,409.00 C303.10,409.00 302.00,409.45 302.00,410.00 C302.00,410.55 303.38,411.00 305.06,411.00 C306.84,411.00 307.86,410.58 307.50,410.00 ZM 248.00 406.00 C248.00,403.80 247.55,402.00 247.00,402.00 C246.45,402.00 246.00,403.80 246.00,406.00 C246.00,408.20 246.45,410.00 247.00,410.00 C247.55,410.00 248.00,408.20 248.00,406.00 ZM 307.00 399.00 C307.00,398.45 305.88,398.00 304.50,398.00 C303.12,398.00 302.00,398.45 302.00,399.00 C302.00,399.55 303.12,400.00 304.50,400.00 C305.88,400.00 307.00,399.55 307.00,399.00 ZM 280.00 389.00 C280.00,386.25 279.55,384.00 279.00,384.00 C278.45,384.00 278.00,386.25 278.00,389.00 C278.00,391.75 278.45,394.00 279.00,394.00 C279.55,394.00 280.00,391.75 280.00,389.00 ZM 330.00 383.00 C330.00,382.45 329.55,382.00 329.00,382.00 C328.45,382.00 328.00,382.45 328.00,383.00 C328.00,383.55 328.45,384.00 329.00,384.00 C329.55,384.00 330.00,383.55 330.00,383.00 ZM 306.50 370.00 C306.16,369.45 305.26,369.00 304.50,369.00 C303.74,369.00 302.84,369.45 302.50,370.00 C302.15,370.57 303.01,371.00 304.50,371.00 C305.99,371.00 306.85,370.57 306.50,370.00 ZM 307.00 359.00 C307.00,357.73 303.97,357.73 302.00,359.00 C300.86,359.74 301.28,359.97 303.75,359.98 C305.54,359.99 307.00,359.55 307.00,359.00 ZM 569.00 359.00 C570.18,358.24 569.97,358.04 568.00,358.07 C566.62,358.10 563.70,358.49 561.50,358.94 L 557.50 359.77 L 562.50 359.87 C565.25,359.92 568.17,359.53 569.00,359.00 ZM 524.00 352.80 C524.00,351.18 523.70,350.90 522.89,351.71 C522.28,352.32 522.08,353.31 522.45,353.91 C523.48,355.59 524.00,355.21 524.00,352.80 ZM 632.00 313.44 C632.00,312.58 631.55,312.16 631.00,312.50 C630.45,312.84 630.00,313.54 630.00,314.06 C630.00,314.58 630.45,315.00 631.00,315.00 C631.55,315.00 632.00,314.30 632.00,313.44 ZM 312.00 311.95 C280.90,310.86 260.00,310.88 260.00,312.00 C260.00,312.65 272.46,312.94 295.75,312.82 C328.86,312.65 330.06,312.58 312.00,311.95 ZM 375.50 311.82 C370.55,311.33 364.82,311.06 362.76,311.24 C360.70,311.41 358.85,311.09 358.65,310.53 C358.44,309.96 357.94,309.81 357.54,310.18 C355.29,312.27 358.98,312.99 371.31,312.86 L 384.50 312.73 L 375.50 311.82 ZM 600.00 310.02 C600.00,307.21 599.86,307.11 597.50,308.18 C594.90,309.36 593.92,311.63 596.42,310.67 C597.20,310.37 598.08,310.77 598.39,311.56 C599.28,313.90 600.00,313.21 600.00,310.02 ZM 428.00 311.08 C428.00,310.75 422.60,310.38 416.00,310.25 C408.12,310.10 404.00,310.38 404.00,311.07 C404.00,311.77 408.12,312.05 416.00,311.90 C422.60,311.78 428.00,311.41 428.00,311.08 ZM 508.79 310.46 C507.68,309.34 461.00,308.83 461.00,309.93 C461.00,310.66 468.65,311.00 485.17,311.00 C498.46,311.00 509.09,310.76 508.79,310.46 ZM 622.39 289.42 C623.22,287.27 623.17,287.00 621.94,287.00 C621.36,287.00 621.21,287.53 621.61,288.17 C622.09,288.95 621.79,289.13 620.71,288.72 C619.58,288.29 619.27,288.53 619.66,289.55 C620.39,291.45 621.63,291.39 622.39,289.42 ZM 808.50 271.00 C808.84,270.45 808.42,270.00 807.56,270.00 C806.70,270.00 806.00,270.45 806.00,271.00 C806.00,271.55 806.42,272.00 806.94,272.00 C807.46,272.00 808.16,271.55 808.50,271.00 ZM 804.55 191.21 C803.65,190.32 799.00,195.19 799.69,196.31 C800.05,196.89 801.34,196.14 802.71,194.55 C804.03,193.02 804.85,191.52 804.55,191.21 ZM 399.50 192.00 C399.84,191.45 399.42,191.00 398.56,191.00 C397.70,191.00 397.00,191.45 397.00,192.00 C397.00,192.55 397.42,193.00 397.94,193.00 C398.46,193.00 399.16,192.55 399.50,192.00 ZM 415.50 190.00 C415.16,189.45 414.23,189.00 413.44,189.00 C412.65,189.00 412.00,189.45 412.00,190.00 C412.00,190.55 412.93,191.00 414.06,191.00 C415.19,191.00 415.84,190.55 415.50,190.00 Z" fill="rgb(252,254,254)"/>
</g>
</svg>