<svg xmlns="http://www.w3.org/2000/svg" width="1024" height="1024" viewBox="0 0 1024 1024">
<g>
<path d="M 0.00 0.00 L 1024.00 0.00 L 1024.00 1024.00 L 0.00 1024.00 ZM 191.85 703.25 C193.24,704.76 194.58,706.00 194.83,706.00 C195.91,706.00 219.66,701.87 221.16,701.42 C224.41,700.44 223.74,698.22 218.43,692.40 C215.46,689.16 213.02,686.16 213.02,685.75 C213.01,685.34 212.21,684.20 211.25,683.22 C209.30,681.23 204.04,674.42 202.50,671.89 C201.95,670.98 200.97,669.38 200.32,668.32 C197.45,663.63 198.28,663.52 239.21,663.21 L 277.50 662.92 L 282.45 675.67 C287.07,687.59 287.45,688.21 288.20,685.30 C288.65,683.58 288.90,646.70 288.76,603.34 L 288.50 524.50 L 283.50 524.39 C272.06,524.15 261.87,516.16 254.38,501.57 L 250.50 494.01 L 198.75 494.00 L 147.00 494.00 L 147.02 488.25 C147.07,473.35 153.69,439.02 160.68,417.50 C167.66,396.00 181.88,366.14 193.49,348.62 L 199.54 339.50 L 303.02 339.27 C366.73,339.13 407.08,339.40 408.00,339.98 C409.30,340.80 409.50,348.19 409.50,396.46 L 409.50 399.21 C409.50,438.51 409.50,451.66 411.43,451.95 C412.40,452.09 413.85,448.99 416.04,444.33 C416.14,444.12 416.24,443.90 416.35,443.68 C422.01,431.64 431.12,413.72 432.47,412.00 C433.12,411.17 434.85,407.74 436.32,404.37 L 439.00 398.25 L 439.00 339.00 L 475.96 339.00 L 482.53 333.05 C486.15,329.77 491.13,325.83 493.61,324.30 C500.31,320.14 504.08,316.93 503.44,315.91 C503.13,315.39 489.02,315.00 470.94,315.00 L 439.00 315.00 L 439.00 231.87 L 441.25 232.55 C447.82,234.56 456.39,238.79 463.63,243.58 C472.34,249.35 486.57,262.59 492.11,270.08 C493.97,272.60 497.99,278.00 501.04,282.08 C507.09,290.18 515.00,302.99 515.00,304.69 C515.00,305.27 515.67,306.31 516.49,306.99 C517.69,307.99 518.80,307.85 522.24,306.26 C524.58,305.17 529.30,303.04 532.72,301.52 C536.24,299.95 539.20,297.95 539.53,296.89 C540.38,294.23 534.26,282.85 523.87,267.79 C522.84,266.30 522.00,264.82 522.00,264.50 C522.00,262.79 513.74,253.04 512.79,253.63 C512.19,254.00 511.96,253.87 512.30,253.33 C512.63,252.79 511.69,251.00 510.20,249.37 C504.89,243.51 501.87,238.93 502.21,237.23 C502.49,235.81 503.45,235.56 507.53,235.85 C510.26,236.05 512.72,236.55 513.00,236.97 C513.28,237.39 514.62,238.07 516.00,238.48 C522.82,240.54 541.85,248.87 552.90,254.65 C565.60,261.29 578.17,269.28 589.83,278.10 L 596.39 283.07 L 598.94 279.82 C600.34,278.03 602.33,274.98 603.36,273.03 C604.38,271.09 606.77,267.34 608.65,264.70 C613.42,258.00 613.93,254.76 610.57,252.37 C609.12,251.34 605.05,248.36 601.51,245.75 C597.98,243.14 594.72,241.00 594.28,241.00 C593.83,241.00 591.79,239.86 589.73,238.46 C585.34,235.48 549.16,217.00 547.71,217.00 C547.16,217.00 541.72,215.03 535.61,212.62 C521.86,207.21 507.73,202.94 494.00,200.05 C488.23,198.83 481.92,197.45 480.00,196.97 C474.27,195.54 460.58,194.11 442.50,193.04 C416.21,191.49 382.31,193.88 364.50,198.54 C361.20,199.40 356.92,200.46 355.00,200.89 C336.45,205.01 304.58,217.43 288.00,227.00 C283.88,229.38 278.03,232.69 275.02,234.36 C267.93,238.29 253.15,248.06 245.50,253.86 C223.07,270.89 191.64,303.05 175.66,325.33 C170.39,332.66 160.00,349.35 160.00,350.47 C160.00,350.78 157.98,354.37 155.50,358.45 C153.02,362.52 151.00,366.08 151.00,366.34 C151.00,366.61 149.39,370.35 147.43,374.66 C140.69,389.45 139.75,391.81 135.51,404.50 C124.19,438.38 118.96,476.32 120.42,513.89 C121.06,530.47 121.76,537.38 124.64,555.50 C126.87,569.55 132.40,592.26 135.12,598.50 C135.60,599.60 136.86,603.26 137.92,606.63 C138.97,610.00 141.03,615.85 142.49,619.63 C145.70,627.92 162.76,662.74 164.00,663.50 C164.48,663.80 165.52,665.27 166.30,666.77 C171.95,677.57 183.79,694.48 191.85,703.25 ZM 539.48 526.96 C541.06,529.52 557.58,521.98 565.00,515.31 C570.31,510.53 577.08,498.00 581.37,485.00 C589.65,459.89 594.75,450.04 602.10,445.03 C604.68,443.27 612.75,439.91 620.55,437.36 C633.08,433.25 638.99,430.79 648.75,425.59 C651.56,424.09 651.81,423.66 650.57,422.43 C649.79,421.64 648.32,420.98 647.32,420.96 C645.61,420.91 660.05,413.11 662.74,412.61 C663.42,412.49 666.01,410.86 668.50,409.00 C670.99,407.14 673.65,405.52 674.42,405.41 C675.93,405.19 692.83,388.71 694.50,385.84 C695.05,384.89 697.82,381.49 700.65,378.29 C705.10,373.25 705.63,372.22 704.54,370.73 C703.85,369.78 701.98,368.95 700.39,368.88 C698.70,368.82 698.23,368.58 699.25,368.31 C700.21,368.06 701.00,367.49 701.00,367.05 C701.00,366.61 702.35,365.68 704.00,365.00 C705.65,364.32 707.00,363.39 707.00,362.95 C707.00,362.51 709.36,360.79 712.25,359.13 C715.14,357.47 718.40,355.41 719.50,354.55 C720.60,353.69 725.62,349.91 730.65,346.14 C735.68,342.37 742.57,336.07 745.95,332.14 C749.33,328.21 752.77,325.00 753.61,325.00 C754.44,325.00 754.84,324.55 754.50,324.00 C754.16,323.45 754.36,323.00 754.94,323.00 C755.52,323.00 756.00,322.53 756.00,321.95 C756.00,321.37 758.13,317.65 760.73,313.70 C763.33,309.74 766.33,304.92 767.38,303.00 C768.44,301.08 770.32,297.70 771.55,295.50 C772.79,293.30 774.79,289.59 775.99,287.25 C777.23,284.83 778.64,283.28 779.25,283.65 C779.85,284.03 780.02,283.84 779.63,283.21 C779.26,282.61 781.43,277.63 784.46,272.16 C792.40,257.83 792.59,257.18 789.24,255.87 C786.68,254.87 779.85,255.42 766.12,257.71 C760.83,258.59 763.26,255.76 771.51,251.42 C775.36,249.41 779.43,246.91 780.56,245.88 C781.70,244.85 783.07,244.00 783.60,244.00 C784.83,244.00 793.60,234.91 798.07,229.00 C799.94,226.52 801.95,224.05 802.54,223.50 C805.72,220.53 820.00,193.70 820.00,190.69 C820.00,189.69 820.84,186.76 821.87,184.19 C824.98,176.40 828.93,155.79 830.97,136.70 C831.59,130.91 831.75,119.94 831.35,109.90 C830.77,94.99 830.46,92.78 828.89,91.94 C827.54,91.22 826.62,91.49 825.19,93.03 C824.14,94.16 820.58,96.52 817.28,98.29 C813.98,100.06 808.86,102.96 805.89,104.75 C802.93,106.53 799.91,107.77 799.20,107.51 C798.48,107.24 798.17,107.47 798.51,108.01 C798.84,108.56 798.42,109.00 797.56,109.00 C796.70,109.00 796.00,109.45 796.00,110.01 C796.00,110.86 793.04,112.90 780.78,120.50 C779.89,121.05 773.96,125.10 767.59,129.50 C761.23,133.90 754.53,138.40 752.72,139.50 C750.90,140.60 745.68,144.54 741.11,148.25 C736.54,151.96 732.20,155.00 731.46,155.00 C730.72,155.00 729.53,155.79 728.81,156.76 C728.09,157.73 723.22,162.19 718.00,166.68 C698.76,183.20 691.67,192.15 687.12,205.66 C685.91,209.25 684.50,211.63 683.48,211.84 C682.09,212.13 681.92,211.65 682.47,209.13 C682.84,207.45 682.70,205.29 682.17,204.34 C681.33,202.84 679.73,204.07 670.78,213.05 C658.83,225.03 646.63,240.41 633.13,260.50 C623.63,274.64 619.13,283.11 618.77,287.57 C618.65,288.90 618.28,290.00 617.94,290.00 C616.48,290.00 614.86,298.92 614.29,310.07 C613.96,316.67 613.32,322.30 612.87,322.58 C612.42,322.86 610.80,320.82 609.27,318.06 C605.72,311.62 602.63,311.26 601.62,317.17 C601.49,317.90 600.81,320.22 600.10,322.32 C599.38,324.42 599.03,326.37 599.32,326.65 C599.60,326.94 598.90,328.25 597.75,329.58 C596.60,330.90 594.60,335.23 593.30,339.20 C592.01,343.17 590.50,346.69 589.95,347.03 C589.40,347.37 588.73,349.41 588.46,351.57 C588.19,353.73 587.47,357.03 586.86,358.89 C586.25,360.76 586.00,364.70 586.30,367.64 C586.61,370.67 586.45,373.00 585.93,373.00 C585.42,373.00 585.00,374.51 585.00,376.36 C585.00,386.60 582.69,391.84 580.17,387.33 C579.39,385.94 579.13,386.14 578.60,388.58 C577.56,393.33 578.70,412.88 580.51,421.50 C581.44,425.90 581.99,431.52 581.75,434.00 C581.44,437.15 577.39,446.46 568.28,465.00 C561.11,479.58 553.57,495.10 551.52,499.50 C549.47,503.90 545.76,511.63 543.29,516.67 C540.81,521.72 539.10,526.35 539.48,526.96 ZM 382.48 816.05 C391.34,817.34 401.47,817.83 421.04,817.90 C447.63,818.00 463.15,816.81 477.50,813.56 C480.80,812.81 486.20,811.65 489.50,810.98 C506.13,807.63 534.94,797.86 553.50,789.28 C565.08,783.93 586.32,771.55 600.00,762.19 C621.74,747.30 651.42,719.72 664.30,702.46 C666.74,699.18 669.59,695.60 670.62,694.50 C671.65,693.40 674.27,689.80 676.43,686.50 C699.48,651.32 713.34,622.36 721.98,591.35 C730.85,559.48 732.45,549.72 732.48,527.00 L 732.50 509.50 L 724.15 508.64 L 715.80 507.78 L 711.59 511.91 C707.00,516.42 707.52,514.41 703.94,541.50 C701.55,559.56 698.98,571.09 695.79,578.00 C693.51,582.95 689.71,597.04 690.45,597.79 C690.71,598.04 690.25,599.55 689.43,601.14 C688.61,602.72 687.10,606.60 686.06,609.76 C683.13,618.76 680.24,625.99 678.55,628.56 C677.70,629.87 677.00,631.57 677.00,632.35 C677.00,633.14 676.21,634.72 675.25,635.87 C673.52,637.93 672.89,637.96 617.69,638.23 L 561.88 638.50 L 561.65 649.82 C561.52,656.04 561.78,661.36 562.23,661.64 C562.68,661.92 584.32,662.10 610.32,662.04 C636.33,661.98 657.91,662.24 658.28,662.61 C659.07,663.41 655.03,671.00 653.82,671.00 C653.37,671.00 653.00,671.46 653.00,672.02 C653.00,673.40 644.25,684.63 635.09,695.00 C615.37,717.31 591.36,737.57 564.73,754.36 C561.56,756.36 558.70,758.00 558.38,758.00 C558.07,758.00 556.61,758.82 555.15,759.83 C553.69,760.83 550.92,762.24 549.00,762.97 C542.89,765.26 533.64,769.08 529.50,771.01 C519.47,775.68 497.00,780.57 497.00,778.07 C497.00,777.58 498.35,776.04 500.00,774.65 C501.65,773.27 503.00,771.66 503.00,771.09 C503.00,770.52 504.35,768.58 506.01,766.78 C513.41,758.72 517.42,753.72 517.63,752.31 C517.75,751.47 518.75,749.82 519.84,748.64 C520.93,747.46 521.98,745.60 522.16,744.50 C522.35,743.40 522.75,742.28 523.05,742.00 C524.78,740.42 528.62,733.89 535.04,721.64 C540.82,710.59 542.00,707.61 540.89,706.91 C540.13,706.43 539.16,706.02 538.74,706.02 C538.32,706.01 536.07,705.17 533.74,704.15 C529.76,702.41 521.24,699.96 518.10,699.64 C517.25,699.56 514.16,704.44 510.29,712.00 C503.02,726.19 498.29,734.47 493.68,741.05 C486.26,751.65 476.45,763.32 469.78,769.50 C459.04,779.44 441.26,790.59 439.29,788.62 C438.93,788.26 438.48,770.11 438.28,748.28 C438.08,726.45 437.80,708.47 437.66,708.33 C437.52,708.18 432.10,707.57 425.63,706.97 C416.65,706.13 413.52,706.16 412.43,707.06 C411.23,708.05 411.00,714.85 411.00,748.62 L 411.00 789.00 L 408.12 789.00 C406.54,789.00 404.69,788.33 404.01,787.51 C403.33,786.69 402.39,786.26 401.92,786.55 C400.68,787.32 393.89,783.61 391.14,780.67 C389.83,779.26 388.15,778.39 387.34,778.70 C385.68,779.34 358.63,752.57 357.58,749.25 C357.22,748.13 355.36,745.54 353.44,743.50 C351.51,741.46 349.33,738.33 348.58,736.53 C346.63,731.87 343.55,731.43 336.92,734.85 C333.94,736.39 329.15,738.48 326.29,739.51 C323.42,740.53 320.84,741.99 320.55,742.74 C319.64,745.10 335.71,766.83 342.56,772.50 C344.43,774.05 347.33,779.00 346.37,778.99 C344.57,778.96 332.89,774.99 328.84,773.04 C326.52,771.92 324.09,771.00 323.44,771.00 C321.61,771.00 312.78,766.93 310.12,764.86 C308.80,763.84 306.78,762.99 305.62,762.98 C303.76,762.97 300.09,761.20 291.00,755.95 C289.62,755.15 288.27,754.27 288.00,754.00 C287.73,753.72 285.59,752.20 283.25,750.61 L 279.00 747.73 L 274.54 749.43 C272.08,750.37 266.12,751.78 261.29,752.57 C240.64,755.94 240.46,756.15 251.71,764.18 C264.28,773.14 269.94,777.00 270.54,777.00 C270.85,777.00 274.82,779.47 279.37,782.50 C283.92,785.53 288.22,788.00 288.94,788.00 C289.66,788.00 292.78,789.30 295.87,790.89 C304.66,795.41 316.53,800.03 338.50,807.46 C341.25,808.39 346.20,809.57 349.50,810.08 C352.80,810.59 358.86,811.75 362.98,812.65 C367.09,813.56 375.86,815.09 382.48,816.05 ZM 277.03 514.25 C284.58,518.05 290.97,515.74 297.59,506.82 C302.55,500.14 307.28,490.74 308.48,485.15 C309.30,481.34 309.55,481.33 321.00,484.60 C330.22,487.24 344.43,487.17 348.46,484.48 C356.49,479.11 359.71,473.06 358.37,465.89 C357.40,460.72 351.10,449.26 345.24,442.01 C337.78,432.78 337.76,432.43 344.56,423.80 C356.26,408.94 360.83,394.55 356.32,386.79 C353.18,381.40 347.91,379.18 338.00,379.08 C330.29,379.00 320.70,381.02 319.00,383.09 C318.73,383.42 316.57,384.00 314.20,384.37 C310.08,385.01 309.87,384.91 308.85,382.00 C306.52,375.31 300.05,363.13 296.97,359.62 C290.84,352.64 283.64,351.07 276.86,355.26 C271.14,358.79 268.25,363.06 264.09,374.13 C261.97,379.79 259.72,384.59 259.11,384.80 C258.49,385.00 254.05,383.90 249.24,382.34 C242.12,380.03 238.72,379.50 230.92,379.50 C222.11,379.50 221.02,379.72 217.39,382.23 C211.96,385.99 210.27,391.61 211.96,400.29 C213.00,405.59 214.89,409.79 220.50,419.17 C221.05,420.09 223.64,423.29 226.25,426.28 C228.86,429.27 231.00,432.14 231.00,432.65 C231.00,433.17 228.54,436.50 225.52,440.05 C222.51,443.60 218.02,450.55 215.54,455.50 C211.16,464.24 211.04,464.71 211.50,471.93 C211.89,478.23 212.36,479.77 214.60,482.10 C218.77,486.46 221.93,487.28 232.74,486.80 C239.38,486.51 244.85,485.60 249.85,483.96 C250.19,483.84 250.52,483.73 250.83,483.63 C253.97,482.59 255.79,481.99 257.19,482.51 C259.27,483.30 260.41,486.58 263.53,494.65 C267.73,505.47 272.04,511.74 277.03,514.25 ZM 306.52 680.84 C306.72,681.67 306.80,682.26 307.12,682.46 C307.76,682.87 309.34,681.81 314.61,678.26 C315.04,677.97 315.50,677.66 315.98,677.34 C317.90,676.05 319.92,674.99 320.48,674.99 C321.04,674.98 324.15,673.63 327.39,671.99 C330.96,670.18 334.83,669.00 337.21,669.00 C339.37,669.00 342.11,668.47 343.32,667.82 C348.81,664.84 380.78,667.20 393.90,671.55 C399.14,673.28 409.38,678.46 412.81,681.11 C412.96,681.22 413.09,681.32 413.23,681.43 C414.27,682.24 415.09,682.88 415.73,682.74 C418.00,682.22 418.00,671.75 418.00,623.96 C418.00,622.23 418.00,620.46 418.00,618.64 L 418.00 555.50 L 408.25 550.00 C402.89,546.97 396.93,543.78 395.00,542.91 C386.02,538.84 354.89,536.92 337.50,539.37 C319.69,541.88 316.92,542.59 308.00,546.98 C306.69,547.62 306.46,556.16 306.22,613.11 C306.07,649.07 306.20,679.55 306.52,680.84 ZM 435.65 680.25 C436.31,682.63 438.35,682.45 442.77,679.60 C444.82,678.29 448.19,676.68 450.25,676.03 C452.31,675.38 454.00,674.48 454.00,674.04 C454.00,673.59 457.26,672.01 461.25,670.51 C467.25,668.26 470.98,667.65 482.91,666.97 C496.07,666.22 498.27,666.35 508.41,668.50 C514.51,669.80 520.67,671.30 522.09,671.84 C523.52,672.39 525.32,672.76 526.09,672.68 C526.87,672.59 531.20,674.43 535.73,676.76 C540.25,679.09 544.42,681.00 544.98,681.00 C546.17,681.00 546.42,549.16 545.23,547.43 C543.80,545.34 535.33,542.02 526.98,540.27 C515.68,537.91 480.53,537.93 468.42,540.31 C459.20,542.12 447.62,547.08 440.42,552.30 L 435.50 555.87 L 435.34 617.19 C435.25,650.91 435.39,679.29 435.65,680.25 ZM 271.55 637.79 C271.15,638.18 250.91,638.59 226.57,638.70 C181.03,638.91 180.00,638.83 180.00,635.00 C180.00,634.12 179.57,632.97 179.04,632.44 C177.37,630.77 170.37,615.78 166.70,605.98 C164.75,600.77 162.60,595.15 161.92,593.50 C161.25,591.85 160.59,590.01 160.46,589.42 C160.33,588.83 158.60,582.75 156.61,575.92 C154.62,569.09 152.57,560.12 152.05,556.00 C151.52,551.88 150.40,543.89 149.55,538.26 C147.78,526.55 147.62,521.15 148.98,519.00 C149.81,517.69 157.03,517.53 205.71,517.75 L 261.50 518.00 L 262.36 523.21 C262.96,526.84 262.88,528.54 262.11,528.80 C260.82,529.23 260.54,544.60 261.81,545.39 C262.26,545.66 262.71,552.78 262.82,561.19 C263.10,583.68 265.51,607.38 269.12,623.29 C270.85,630.87 271.94,637.39 271.55,637.79 ZM 127.50 747.52 C137.81,749.34 181.18,748.77 202.50,746.54 C230.85,743.58 235.52,742.99 243.00,741.43 C247.12,740.57 252.98,739.54 256.00,739.14 C259.02,738.74 262.48,737.87 263.68,737.21 C264.89,736.54 267.22,736.00 268.88,736.00 C270.53,736.00 272.12,735.61 272.41,735.14 C272.70,734.67 275.32,734.00 278.22,733.65 C283.60,733.01 319.62,724.13 335.00,719.66 C339.67,718.31 347.33,716.20 352.00,714.99 C356.67,713.77 362.33,711.93 364.57,710.89 C366.80,709.85 369.41,709.00 370.37,709.00 C371.32,709.00 373.54,708.25 375.30,707.34 C377.06,706.42 380.52,705.16 383.00,704.52 C390.01,702.73 389.48,700.46 381.72,699.11 C368.86,696.87 318.17,698.11 305.50,700.98 C303.30,701.48 297.23,702.60 292.00,703.47 C281.54,705.21 267.06,708.38 259.85,710.50 C257.29,711.25 254.24,711.61 253.07,711.31 C250.60,710.66 242.00,712.85 242.00,714.13 C242.00,714.61 240.08,715.00 237.74,715.00 C235.40,715.00 231.91,715.46 229.99,716.02 C228.07,716.58 220.20,718.01 212.50,719.20 C201.09,720.95 193.88,721.36 173.50,721.41 C150.07,721.47 148.03,721.33 141.00,719.15 C136.88,717.88 132.15,716.47 130.50,716.03 C116.61,712.30 103.39,699.80 99.51,686.72 C97.40,679.61 97.60,666.89 99.97,657.63 C102.08,649.37 108.60,634.58 112.33,629.57 C113.58,627.88 115.86,624.34 117.38,621.69 L 120.15 616.89 L 117.99 604.69 C116.80,597.99 115.66,592.33 115.46,592.13 C113.17,589.81 99.19,607.03 89.41,624.20 C84.91,632.11 77.30,649.12 75.98,654.24 C75.38,656.58 74.29,659.85 73.56,661.50 C72.83,663.15 71.92,667.42 71.54,670.99 C71.16,674.56 70.32,677.80 69.68,678.20 C68.25,679.08 68.29,694.93 69.73,695.87 C70.26,696.21 70.99,699.01 71.34,702.08 C71.94,707.33 75.45,715.56 78.59,719.08 C79.37,719.95 80.00,721.03 80.00,721.48 C80.00,723.29 85.40,729.23 90.37,732.90 C100.83,740.63 110.93,744.61 127.50,747.52 ZM 447.76 489.00 C450.92,489.41 453.95,489.79 454.50,489.84 C458.18,490.24 503.64,487.85 510.75,486.90 C519.16,485.76 524.12,484.01 518.95,483.99 C517.60,483.99 511.33,483.52 505.00,482.96 C498.67,482.39 483.38,481.09 471.00,480.07 C458.62,479.04 447.29,477.73 445.81,477.15 C442.49,475.85 440.64,472.59 441.43,469.43 C442.15,466.55 455.29,450.55 462.92,443.25 C468.20,438.19 468.61,438.00 474.02,438.00 C483.90,438.00 493.51,433.88 506.67,424.00 C515.67,417.25 529.56,401.27 539.95,385.71 C545.38,377.58 560.51,347.00 559.10,347.00 C558.66,347.00 556.18,348.12 553.60,349.50 C551.01,350.88 548.24,352.00 547.45,352.00 C545.67,352.00 545.54,349.40 547.26,348.30 C553.06,344.61 570.07,317.92 571.64,310.03 C572.22,307.17 572.06,306.83 570.40,307.28 C569.35,307.56 566.25,308.35 563.50,309.04 C560.75,309.74 555.23,311.81 551.23,313.65 C547.23,315.49 543.54,317.00 543.04,317.00 C542.54,317.00 538.43,319.48 533.91,322.50 C529.39,325.52 525.09,328.00 524.35,328.00 C523.61,328.00 523.00,328.43 523.00,328.95 C523.00,329.47 520.57,331.51 517.59,333.48 C514.61,335.46 507.53,341.54 501.84,347.00 C496.15,352.45 490.93,356.93 490.22,356.96 C486.82,357.07 469.67,377.05 463.53,388.05 C457.58,398.71 454.00,406.89 454.00,409.81 C454.00,411.34 454.68,415.20 455.51,418.39 L 457.03 424.21 L 448.26 434.23 C426.93,458.63 421.80,467.47 424.27,475.51 C426.49,482.75 434.39,487.29 447.76,489.00 ZM 563.88 612.32 C564.10,613.85 568.50,611.74 583.00,603.12 C597.70,594.38 620.37,579.13 629.50,571.85 C632.25,569.66 636.60,566.21 639.17,564.18 C658.89,548.64 683.46,523.92 700.95,502.01 L 707.73 493.52 L 715.12 493.47 C720.86,493.44 723.50,492.91 727.00,491.08 C739.46,484.58 744.48,477.07 744.43,465.00 C744.39,457.13 743.23,453.79 738.23,447.11 C734.64,442.32 722.29,436.72 715.54,436.81 C704.15,436.98 694.48,442.74 689.69,452.23 C685.68,460.16 685.36,465.23 688.41,472.87 C690.45,478.00 690.73,479.65 689.83,481.37 C687.59,485.64 671.44,503.34 657.64,516.65 C636.56,536.98 621.00,550.11 604.76,561.25 C601.75,563.31 598.19,566.01 596.84,567.25 C595.49,568.49 593.07,570.17 591.45,570.99 C589.32,572.08 566.96,586.45 564.24,588.49 C563.99,588.68 563.66,610.72 563.88,612.32 ZM 421.89 529.96 C427.43,531.48 438.24,525.62 438.81,520.79 L 439.12 518.16 L 478.81 517.79 C506.00,517.53 519.35,517.05 521.20,516.25 C524.68,514.75 532.56,502.68 533.31,497.70 C533.82,494.37 533.60,493.80 531.51,493.00 C530.20,492.51 527.87,492.46 526.32,492.90 C524.77,493.34 504.94,493.55 482.25,493.36 C459.56,493.17 441.00,493.35 441.00,493.76 C441.00,494.17 418.72,494.50 391.50,494.50 C364.27,494.50 342.00,494.16 342.00,493.75 C342.00,493.34 340.88,493.00 339.50,493.00 C338.12,493.00 337.00,493.34 337.00,493.75 C337.00,494.16 333.08,494.50 328.28,494.50 L 319.55 494.50 L 317.52 497.82 C316.41,499.64 313.40,504.37 310.83,508.32 C307.43,513.55 306.45,515.84 307.21,516.75 C308.01,517.72 319.61,518.00 359.12,518.00 L 410.00 518.00 L 410.00 520.90 C410.00,523.30 410.81,524.28 414.64,526.53 C417.19,528.02 420.45,529.57 421.89,529.96 ZM 303.82 308.00 L 300.37 314.50 L 262.25 314.76 C237.17,314.93 223.92,314.68 223.50,314.01 C222.55,312.46 225.85,308.40 236.14,298.47 C244.10,290.78 256.40,280.65 264.61,275.00 C265.81,274.17 271.00,270.53 276.15,266.90 C281.29,263.27 286.85,259.63 288.50,258.80 C290.15,257.97 294.42,255.54 298.00,253.38 C303.82,249.88 314.12,244.85 324.00,240.68 C330.21,238.06 347.12,232.94 351.63,232.33 C356.49,231.66 357.17,232.64 353.88,235.60 C349.61,239.44 333.13,259.82 325.20,271.06 C320.72,277.42 314.85,286.87 312.16,292.06 C309.47,297.25 305.72,304.42 303.82,308.00 ZM 408.84 311.75 L 408.05 314.00 L 369.02 314.00 C334.45,314.00 330.00,313.82 330.00,312.45 C330.00,310.38 332.49,305.67 334.43,304.05 C335.30,303.34 336.00,302.09 336.00,301.27 C336.00,300.46 337.27,298.15 338.82,296.14 C340.37,294.14 342.81,290.48 344.25,288.00 C346.98,283.30 351.26,278.40 354.56,276.21 C355.63,275.50 355.92,275.20 355.22,275.54 C352.89,276.66 357.44,270.27 363.59,263.79 C374.87,251.88 385.89,243.48 398.50,237.14 C407.69,232.52 408.29,232.60 409.19,238.50 C410.18,245.02 409.88,308.82 408.84,311.75 ZM 293.84 454.80 C285.74,459.42 284.40,459.48 277.00,455.48 C273.42,453.55 268.70,450.44 266.50,448.58 L 262.50 445.18 L 262.65 433.08 C262.74,426.10 262.67,422.84 264.06,420.44 C265.44,418.06 268.25,416.52 274.06,413.05 C283.85,407.20 284.59,407.16 293.87,411.99 C306.84,418.74 307.45,419.65 307.33,432.00 C307.21,443.99 307.17,444.15 303.09,448.03 C300.94,450.08 296.77,453.12 293.84,454.80 ZM 604.90 404.44 C602.81,407.98 600.24,409.43 601.39,406.42 C601.73,405.55 602.00,404.62 602.00,404.36 C602.00,404.10 602.34,404.09 602.75,404.35 C603.16,404.60 603.50,402.71 603.50,400.15 C603.50,396.30 605.07,392.33 612.67,377.00 C621.31,359.58 634.82,335.87 642.16,325.25 C654.73,307.05 664.60,293.67 666.63,292.08 C667.93,291.05 669.00,289.91 669.00,289.54 C669.00,288.76 673.64,282.43 676.36,279.50 C677.38,278.40 679.24,275.92 680.49,274.00 C681.75,272.08 685.30,267.93 688.39,264.79 C691.47,261.65 694.01,258.73 694.02,258.29 C694.06,257.02 706.48,242.91 720.64,228.05 C725.12,223.35 730.37,217.81 732.31,215.75 C735.87,211.96 737.42,211.25 738.45,212.92 C739.20,214.14 732.52,221.18 731.51,220.23 C731.08,219.83 730.94,220.18 731.21,221.00 C731.71,222.55 721.79,235.32 716.85,239.47 C715.35,240.74 714.29,241.96 714.52,242.18 C714.74,242.40 713.37,244.32 711.48,246.45 C709.59,248.57 707.25,251.42 706.27,252.78 C705.30,254.14 701.35,259.24 697.50,264.12 C693.65,269.00 688.47,275.92 686.00,279.50 C683.53,283.09 678.88,289.50 675.68,293.76 C672.48,298.02 669.60,302.17 669.28,303.00 C668.96,303.83 668.12,305.17 667.43,306.00 C666.73,306.83 666.01,308.17 665.83,309.00 C665.65,309.83 665.17,310.75 664.77,311.05 C663.47,312.02 653.00,326.33 653.00,327.13 C653.00,328.24 630.99,361.27 629.36,362.61 C628.61,363.22 628.00,364.13 628.00,364.63 C628.00,365.13 626.50,367.82 624.68,370.59 C622.85,373.37 621.04,376.28 620.66,377.07 C620.27,377.86 618.88,380.30 617.55,382.50 C616.22,384.70 614.37,387.85 613.43,389.50 C612.49,391.15 610.66,393.77 609.36,395.33 C608.06,396.88 607.00,398.77 607.00,399.52 C607.00,400.27 606.06,402.49 604.90,404.44 ZM 250.29 416.80 C248.76,418.07 245.79,420.48 243.70,422.18 L 239.90 425.25 L 235.54 420.71 C228.31,413.16 220.10,396.52 221.63,392.52 C222.68,389.80 228.65,388.67 235.35,389.94 C242.18,391.23 253.92,394.81 255.56,396.10 C256.30,396.68 256.09,399.60 254.85,405.72 C253.39,412.94 252.59,414.91 250.29,416.80 ZM 338.45 475.00 C336.64,475.00 335.01,475.47 334.82,476.04 C334.58,476.75 334.15,476.75 333.44,476.04 C332.87,475.47 329.73,474.52 326.45,473.92 C323.18,473.33 320.07,472.42 319.55,471.92 C319.03,471.41 317.82,471.00 316.86,471.00 C314.17,471.00 313.85,469.60 315.03,462.80 C316.33,455.21 316.34,455.17 317.94,451.88 C319.35,448.95 327.20,442.00 329.09,442.00 C331.31,442.00 339.46,451.54 342.39,457.56 C343.98,460.83 345.66,464.28 346.14,465.24 C348.49,469.98 344.54,475.00 338.45,475.00 ZM 247.27 473.87 C244.19,474.49 237.99,475.00 233.49,475.00 C226.84,475.00 225.00,474.66 223.65,473.17 C221.19,470.45 221.67,467.17 225.52,460.50 C227.43,457.20 229.64,453.10 230.44,451.40 C231.25,449.69 233.55,446.85 235.55,445.09 C238.98,442.08 239.33,441.98 241.35,443.45 C242.53,444.32 245.15,446.12 247.17,447.47 C249.18,448.82 251.14,450.42 251.52,451.04 C252.37,452.41 253.91,470.06 253.31,471.62 C253.08,472.24 250.36,473.25 247.27,473.87 ZM 332.11 420.29 C329.97,424.30 327.52,423.52 317.25,415.52 C316.95,415.30 315.22,405.82 314.74,401.79 C314.56,400.30 314.10,398.76 313.71,398.38 C312.69,397.35 314.97,395.00 317.00,395.00 C317.97,395.00 319.28,394.37 319.91,393.60 C320.55,392.84 321.97,392.44 323.07,392.73 C324.16,393.01 326.96,392.54 329.28,391.68 C337.14,388.77 346.01,390.12 345.98,394.23 C345.95,399.43 336.71,418.00 334.16,418.00 C333.71,418.00 332.79,419.03 332.11,420.29 ZM 292.45 392.39 C285.39,395.63 281.94,395.63 275.25,392.39 C272.90,391.25 271.46,390.57 270.87,389.44 C269.95,387.68 271.12,384.81 274.17,377.36 L 274.28 377.11 C277.30,369.73 282.14,363.00 284.42,363.00 C287.57,363.00 297.00,377.55 297.00,382.40 C297.00,383.61 297.51,385.11 298.13,385.73 C300.08,387.68 298.36,389.69 292.45,392.39 ZM 288.71 499.82 C284.64,504.18 283.24,504.39 280.02,501.18 C278.42,499.57 276.78,496.96 276.39,495.38 C276.00,493.80 274.69,491.15 273.47,489.50 C270.76,485.82 269.48,478.68 271.26,477.20 C271.95,476.63 273.86,475.84 275.51,475.44 C277.15,475.05 278.95,474.38 279.50,473.95 C281.77,472.20 288.07,471.75 289.79,473.22 C290.73,474.02 292.96,475.25 294.75,475.96 C297.18,476.92 298.00,477.86 298.00,479.69 C298.00,482.84 291.58,496.75 288.71,499.82 ZM 275.62 442.00 C278.92,445.65 279.67,446.00 284.23,446.00 C288.71,446.00 289.64,445.59 293.12,442.12 C296.53,438.70 297.00,437.67 297.00,433.50 C297.00,429.36 296.53,428.30 293.25,425.03 C288.23,420.04 283.26,419.06 278.34,422.10 C274.36,424.56 272.00,429.16 272.00,434.46 C272.00,437.12 272.90,438.99 275.62,442.00 ZM 700.06 423.50 C701.66,425.27 703.03,425.48 711.69,425.33 L 721.50 425.17 L 721.17 421.83 C720.98,420.00 719.20,414.34 717.20,409.25 C713.02,398.58 712.19,398.16 705.29,403.25 C696.66,409.61 695.00,411.20 695.00,413.14 C695.00,415.51 697.56,420.76 700.06,423.50 Z" fill="rgb(0,91,208)"/>
<path d="M 411.00 273.50 L 411.00 316.00 L 369.17 316.00 C346.16,316.00 327.08,315.74 326.76,315.43 C325.16,313.82 343.20,285.87 354.86,271.91 C367.85,256.36 378.57,246.88 392.29,238.84 C397.65,235.70 408.66,231.00 410.66,231.00 C410.85,231.00 411.00,250.12 411.00,273.50 ZM 408.84 311.75 C409.88,308.82 410.18,245.02 409.19,238.50 C408.29,232.60 407.69,232.52 398.50,237.14 C385.89,243.48 374.87,251.88 363.59,263.79 C357.44,270.27 352.89,276.66 355.22,275.54 C355.92,275.20 355.63,275.50 354.56,276.21 C351.26,278.40 346.98,283.30 344.25,288.00 C342.81,290.48 340.37,294.14 338.82,296.14 C337.27,298.15 336.00,300.46 336.00,301.27 C336.00,302.09 335.30,303.34 334.43,304.05 C332.49,305.67 330.00,310.38 330.00,312.45 C330.00,313.82 334.45,314.00 369.02,314.00 L 408.05 314.00 ZM 335.58 418.75 C332.45,422.74 329.35,425.98 328.69,425.96 C328.04,425.93 324.74,423.35 321.38,420.21 L 315.25 414.50 L 313.52 405.19 C312.57,400.07 311.95,395.73 312.15,395.55 C313.56,394.23 330.73,389.76 336.00,389.33 C344.81,388.61 348.00,389.93 348.00,394.25 C348.00,398.93 342.26,410.25 335.58,418.75 ZM 604.90 404.44 C606.06,402.49 607.00,400.27 607.00,399.52 C607.00,398.77 608.06,396.88 609.36,395.33 C610.66,393.77 612.49,391.15 613.43,389.50 C614.37,387.85 616.22,384.70 617.55,382.50 C618.88,380.30 620.27,377.86 620.66,377.07 C621.04,376.28 622.85,373.37 624.68,370.59 C626.50,367.82 628.00,365.13 628.00,364.63 C628.00,364.13 628.61,363.22 629.36,362.61 C630.99,361.27 653.00,328.24 653.00,327.13 C653.00,326.33 663.47,312.02 664.77,311.05 C665.17,310.75 665.65,309.83 665.83,309.00 C666.01,308.17 666.73,306.83 667.43,306.00 C668.12,305.17 668.96,303.83 669.28,303.00 C669.60,302.17 672.48,298.02 675.68,293.76 C678.88,289.50 683.53,283.09 686.00,279.50 C688.47,275.92 693.65,269.00 697.50,264.12 C701.35,259.24 705.30,254.14 706.27,252.78 C707.25,251.42 709.59,248.57 711.48,246.45 C713.37,244.32 714.74,242.40 714.52,242.18 C714.29,241.96 715.35,240.74 716.85,239.47 C721.79,235.32 731.71,222.55 731.21,221.00 C730.94,220.18 731.08,219.83 731.51,220.23 C732.52,221.18 739.20,214.14 738.45,212.92 C737.42,211.25 735.87,211.96 732.31,215.75 C730.37,217.81 725.12,223.35 720.64,228.05 C706.48,242.91 694.06,257.02 694.02,258.29 C694.01,258.73 691.47,261.65 688.39,264.79 C685.30,267.93 681.75,272.08 680.49,274.00 C679.24,275.92 677.38,278.40 676.36,279.50 C673.64,282.43 669.00,288.76 669.00,289.54 C669.00,289.91 667.93,291.05 666.63,292.08 C664.72,293.58 655.87,305.51 644.37,322.06 C678.71,272.36 697.13,249.80 730.45,216.42 C749.99,196.85 772.32,175.82 774.36,175.08 C774.99,174.85 771.66,178.90 766.96,184.08 C750.47,202.26 726.71,230.18 707.88,253.50 C693.35,271.50 679.23,291.11 659.28,321.00 C628.99,366.38 619.99,380.76 604.54,408.50 L 603.66 410.09 C597.97,420.30 596.50,422.94 596.13,422.79 C595.99,422.74 596.00,422.35 596.00,421.82 C596.00,421.74 596.00,421.66 596.00,421.58 C596.00,417.66 600.37,403.00 603.77,395.50 C605.93,390.73 608.44,385.51 611.14,380.10 C604.86,392.89 603.50,396.57 603.50,400.15 C603.50,402.71 603.16,404.60 602.75,404.35 C602.34,404.09 602.00,404.10 602.00,404.36 C602.00,404.62 601.73,405.55 601.39,406.42 C600.24,409.43 602.81,407.98 604.90,404.44 ZM 332.11 420.29 C332.79,419.03 333.71,418.00 334.16,418.00 C336.71,418.00 345.95,399.43 345.98,394.23 C346.01,390.12 337.14,388.77 329.28,391.68 C326.96,392.54 324.16,393.01 323.07,392.73 C321.97,392.44 320.55,392.84 319.91,393.60 C319.28,394.37 317.97,395.00 317.00,395.00 C314.97,395.00 312.69,397.35 313.71,398.38 C314.10,398.76 314.56,400.30 314.74,401.79 C315.22,405.82 316.95,415.30 317.25,415.52 C327.52,423.52 329.97,424.30 332.11,420.29 ZM 286.65 504.53 C285.50,505.34 284.06,506.00 283.45,506.00 C282.21,506.00 279.37,503.02 276.18,498.38 C274.25,495.55 268.00,480.03 268.00,478.04 C268.00,477.04 282.82,470.99 285.26,470.99 C286.23,471.00 287.81,471.42 288.76,471.94 C289.72,472.46 292.65,473.65 295.28,474.59 C297.91,475.53 300.28,476.64 300.54,477.07 C301.30,478.29 295.42,492.67 291.94,498.09 C290.19,500.83 287.81,503.72 286.65,504.53 ZM 288.71 499.82 C291.58,496.75 298.00,482.84 298.00,479.69 C298.00,477.86 297.18,476.92 294.75,475.96 C292.96,475.25 290.73,474.02 289.79,473.22 C288.07,471.75 281.77,472.20 279.50,473.95 C278.95,474.38 277.15,475.05 275.51,475.44 C273.86,475.84 271.95,476.63 271.26,477.20 C269.48,478.68 270.76,485.82 273.47,489.50 C274.69,491.15 276.00,493.80 276.39,495.38 C276.78,496.96 278.42,499.57 280.02,501.18 C283.24,504.39 284.64,504.18 288.71,499.82 ZM 361.24 812.28 C357.30,811.45 352.36,810.52 349.50,810.08 C346.20,809.57 341.25,808.39 338.50,807.46 C316.53,800.03 304.66,795.41 295.87,790.89 C292.78,789.30 289.66,788.00 288.94,788.00 C288.22,788.00 283.92,785.53 279.37,782.50 C274.82,779.47 270.85,777.00 270.54,777.00 C269.94,777.00 264.28,773.14 251.71,764.18 C240.46,756.15 240.64,755.94 261.29,752.57 C266.12,751.78 272.08,750.37 274.54,749.43 L 279.00 747.73 L 283.25 750.61 C285.59,752.20 287.73,753.72 288.00,754.00 C288.27,754.27 289.62,755.15 291.00,755.95 C300.09,761.20 303.76,762.97 305.62,762.98 C306.78,762.99 308.80,763.84 310.12,764.86 C312.78,766.93 321.61,771.00 323.44,771.00 C324.09,771.00 326.52,771.92 328.84,773.04 C332.89,774.99 344.57,778.96 346.37,778.99 C347.33,779.00 344.43,774.05 342.56,772.50 C335.71,766.83 319.64,745.10 320.55,742.74 C320.61,742.58 320.78,742.38 321.04,742.16 C321.01,742.22 321.00,742.27 321.00,742.32 C321.00,745.00 333.96,761.20 345.84,773.38 C354.30,782.04 354.42,782.23 351.00,781.54 C335.41,778.37 301.89,764.30 286.57,754.50 C283.56,752.58 280.24,751.00 279.20,751.00 C276.71,751.00 250.26,755.97 247.69,756.92 C245.95,757.56 246.47,758.25 251.81,762.36 C277.42,782.06 316.14,800.37 349.51,808.58 C353.36,809.52 356.95,810.63 357.50,811.04 C357.95,811.37 359.23,811.79 361.24,812.28 ZM 831.52 116.01 C831.43,114.76 831.31,113.56 831.16,112.40 C830.52,107.43 830.00,101.03 830.00,98.18 C830.00,95.33 829.82,93.00 829.61,93.00 C829.39,93.00 825.01,95.44 819.86,98.43 C772.57,125.85 721.68,162.62 702.24,183.40 C694.54,191.64 688.86,202.98 685.42,217.00 C684.01,222.77 682.48,228.85 682.03,230.50 C681.49,232.46 681.17,228.39 681.10,218.75 C681.05,211.38 680.73,205.24 680.36,204.18 C681.37,203.58 681.83,203.74 682.17,204.34 C682.70,205.29 682.84,207.45 682.47,209.13 C681.92,211.65 682.09,212.13 683.48,211.84 C684.50,211.63 685.91,209.25 687.12,205.66 C691.67,192.15 698.76,183.20 718.00,166.68 C723.22,162.19 728.09,157.73 728.81,156.76 C729.53,155.79 730.72,155.00 731.46,155.00 C732.20,155.00 736.54,151.96 741.11,148.25 C745.68,144.54 750.90,140.60 752.72,139.50 C754.53,138.40 761.23,133.90 767.59,129.50 C773.96,125.10 779.89,121.05 780.78,120.50 C793.04,112.90 796.00,110.86 796.00,110.01 C796.00,109.45 796.70,109.00 797.56,109.00 C798.42,109.00 798.84,108.56 798.51,108.01 C798.17,107.47 798.48,107.24 799.20,107.51 C799.91,107.77 802.93,106.53 805.89,104.75 C808.86,102.96 813.98,100.06 817.28,98.29 C820.58,96.52 824.14,94.16 825.19,93.03 C826.62,91.49 827.54,91.22 828.89,91.94 C830.46,92.78 830.77,94.99 831.35,109.90 C831.43,111.91 831.49,113.97 831.52,116.01 ZM 199.54 339.50 L 193.49 348.62 C191.36,351.83 189.14,355.47 186.90,359.39 C189.14,355.47 191.36,351.83 193.49,348.62 L 199.53 339.50 L 199.54 339.50 L 249.52 338.89 C277.01,338.55 324.59,338.22 355.25,338.14 L 411.00 338.00 L 411.00 394.33 C411.00,425.32 411.26,450.93 411.58,451.25 C411.90,451.57 413.97,448.16 416.18,443.67 C419.87,436.16 423.27,429.37 426.01,424.01 C422.86,430.20 419.17,437.67 416.35,443.68 C416.24,443.90 416.14,444.12 416.04,444.33 C413.85,448.99 412.40,452.09 411.43,451.95 C409.50,451.66 409.50,438.51 409.50,399.21 L 409.50 396.46 C409.50,348.19 409.30,340.80 408.00,339.98 C407.08,339.40 366.73,339.13 303.02,339.27 ZM 790.19 256.29 C788.19,256.28 780.50,257.14 771.57,258.40 C761.37,259.83 751.78,260.96 750.26,260.90 C747.71,260.81 747.80,260.69 751.50,259.21 C753.70,258.33 761.34,254.70 768.48,251.15 C780.00,245.42 782.35,243.79 789.48,236.60 C803.08,222.88 812.33,207.60 819.48,187.00 C824.44,172.73 828.04,158.06 830.02,144.69 C827.85,161.25 824.54,177.48 821.87,184.19 C820.84,186.76 820.00,189.69 820.00,190.69 C820.00,193.70 805.72,220.53 802.54,223.50 C801.95,224.05 799.94,226.52 798.07,229.00 C793.60,234.91 784.83,244.00 783.60,244.00 C783.07,244.00 781.70,244.85 780.56,245.88 C779.43,246.91 775.36,249.41 771.51,251.42 C763.26,255.76 760.83,258.59 766.12,257.71 C779.85,255.42 786.68,254.87 789.24,255.87 C789.60,256.01 789.91,256.14 790.19,256.29 ZM 704.61 370.82 L 699.50 371.34 C696.20,371.67 691.47,372.19 689.00,372.48 C684.57,373.02 684.63,372.96 692.51,369.17 C710.88,360.34 731.74,345.36 744.14,332.11 C752.34,323.34 762.39,309.00 772.23,292.00 C780.39,277.92 790.18,259.08 790.68,256.60 C792.26,257.86 790.96,260.42 784.46,272.16 C781.43,277.63 779.26,282.61 779.63,283.21 C780.02,283.84 779.85,284.03 779.25,283.65 C778.64,283.28 777.23,284.83 775.99,287.25 C774.79,289.59 772.79,293.30 771.55,295.50 C770.32,297.70 768.44,301.08 767.38,303.00 C766.33,304.92 763.33,309.74 760.73,313.70 C758.13,317.65 756.00,321.37 756.00,321.95 C756.00,322.53 755.52,323.00 754.94,323.00 C754.36,323.00 754.16,323.45 754.50,324.00 C754.84,324.55 754.44,325.00 753.61,325.00 C752.77,325.00 749.33,328.21 745.95,332.14 C742.57,336.07 735.68,342.37 730.65,346.14 C725.62,349.91 720.60,353.69 719.50,354.55 C718.40,355.41 715.14,357.47 712.25,359.13 C709.36,360.79 707.00,362.51 707.00,362.95 C707.00,363.39 705.65,364.32 704.00,365.00 C702.35,365.68 701.00,366.61 701.00,367.05 C701.00,367.49 700.21,368.06 699.25,368.31 C698.23,368.58 698.70,368.82 700.39,368.88 C701.98,368.95 703.85,369.78 704.54,370.73 C704.56,370.76 704.59,370.79 704.61,370.82 ZM 325.62 739.75 C325.84,739.67 326.06,739.59 326.29,739.51 C329.15,738.48 333.94,736.39 336.92,734.85 C343.55,731.43 346.63,731.87 348.58,736.53 C349.33,738.33 351.51,741.46 353.44,743.50 C355.36,745.54 357.22,748.13 357.58,749.25 C358.63,752.57 385.68,779.34 387.34,778.70 C388.15,778.39 389.83,779.26 391.14,780.67 C393.89,783.61 400.68,787.32 401.92,786.55 C402.39,786.26 403.33,786.69 404.01,787.51 C404.69,788.33 406.54,789.00 408.12,789.00 L 411.00 789.00 L 411.00 748.62 C411.00,714.85 411.23,708.05 412.43,707.06 C412.45,707.04 412.47,707.02 412.49,707.01 L 412.00 749.20 L 411.50 791.89 L 405.00 789.70 C388.58,784.15 370.35,768.69 353.10,745.67 C349.05,740.26 345.22,735.64 344.60,735.40 C343.51,734.98 331.93,737.68 325.62,739.75 ZM 518.48 516.71 L 521.23 514.52 C523.54,512.67 526.51,508.49 529.07,503.52 L 533.18 495.50 L 479.34 494.91 C460.05,494.70 432.93,494.53 408.31,494.46 C427.33,494.35 441.00,494.08 441.00,493.76 C441.00,493.35 459.56,493.17 482.25,493.36 C504.94,493.55 524.77,493.34 526.32,492.90 C527.87,492.46 530.20,492.51 531.51,493.00 C533.60,493.80 533.82,494.37 533.31,497.70 C532.56,502.68 524.68,514.75 521.20,516.25 C520.81,516.42 519.91,516.57 518.48,516.71 ZM 571.65 310.00 C571.69,309.26 571.34,309.00 570.70,309.00 C564.20,309.00 538.30,320.77 527.00,328.86 C523.42,331.42 518.62,334.79 516.32,336.34 C514.03,337.90 506.71,344.35 500.07,350.67 C493.20,357.22 488.00,361.49 488.00,360.59 C488.00,359.13 487.55,358.73 486.37,359.50 C488.13,357.92 489.49,356.98 490.22,356.96 C490.93,356.93 496.15,352.45 501.84,347.00 C507.53,341.54 514.61,335.46 517.59,333.48 C520.57,331.51 523.00,329.47 523.00,328.95 C523.00,328.43 523.61,328.00 524.35,328.00 C525.09,328.00 529.39,325.52 533.91,322.50 C538.43,319.48 542.54,317.00 543.04,317.00 C543.54,317.00 547.23,315.49 551.23,313.65 C555.23,311.81 560.75,309.74 563.50,309.04 C566.25,308.35 569.35,307.56 570.40,307.28 C572.06,306.83 572.22,307.17 571.65,310.00 ZM 338.45 475.00 C344.54,475.00 348.49,469.98 346.14,465.24 C345.66,464.28 343.98,460.83 342.39,457.56 C339.46,451.54 331.31,442.00 329.09,442.00 C327.20,442.00 319.35,448.95 317.94,451.88 C316.34,455.17 316.33,455.21 315.03,462.80 C313.85,469.60 314.17,471.00 316.86,471.00 C317.82,471.00 319.03,471.41 319.55,471.92 C320.07,472.42 323.18,473.33 326.45,473.92 C329.73,474.52 332.87,475.47 333.44,476.04 C333.67,476.27 333.86,476.42 334.04,476.50 C328.96,476.20 323.08,475.00 317.60,472.95 C312.22,470.94 311.85,470.60 312.39,468.14 C312.70,466.69 313.50,462.22 314.17,458.21 L 315.37 450.92 L 322.05 445.46 C325.72,442.46 329.35,440.03 330.11,440.06 C332.20,440.15 340.51,450.61 344.52,458.20 C348.64,466.01 349.24,471.20 346.36,474.08 C344.44,476.00 339.96,476.80 334.49,476.53 C334.63,476.45 334.74,476.29 334.82,476.04 C335.01,475.47 336.64,475.00 338.45,475.00 ZM 306.52 680.84 L 306.51 680.83 C307.04,681.42 309.85,680.10 314.83,676.92 C329.22,667.77 344.91,664.20 365.50,665.39 C384.26,666.48 403.04,671.90 412.94,679.07 C414.41,680.14 415.81,681.08 416.66,681.59 C416.41,682.31 416.10,682.65 415.73,682.74 C415.09,682.88 414.27,682.24 413.23,681.43 C413.09,681.32 412.96,681.22 412.81,681.11 C409.38,678.46 399.14,673.28 393.90,671.55 C380.78,667.20 348.81,664.84 343.32,667.82 C342.11,668.47 339.37,669.00 337.21,669.00 C334.83,669.00 330.96,670.18 327.39,671.99 C324.15,673.63 321.04,674.98 320.48,674.99 C319.92,674.99 317.90,676.05 315.98,677.34 C315.50,677.66 315.04,677.97 314.61,678.26 C309.34,681.81 307.76,682.87 307.12,682.46 C306.80,682.26 306.72,681.67 306.52,680.84 ZM 605.48 313.34 C603.83,316.59 593.74,342.69 590.96,351.00 C588.14,359.42 586.02,374.31 585.98,385.86 C585.96,393.37 584.91,394.98 582.24,391.58 C578.43,386.74 577.88,388.11 578.37,401.25 C578.37,401.35 578.37,401.44 578.38,401.54 C578.11,395.79 578.13,390.71 578.60,388.58 C579.13,386.14 579.39,385.94 580.17,387.33 C582.69,391.84 585.00,386.60 585.00,376.36 C585.00,374.51 585.42,373.00 585.93,373.00 C586.45,373.00 586.61,370.67 586.30,367.64 C586.00,364.70 586.25,360.76 586.86,358.89 C587.47,357.03 588.19,353.73 588.46,351.57 C588.73,349.41 589.40,347.37 589.95,347.03 C590.50,346.69 592.01,343.17 593.30,339.20 C594.60,335.23 596.60,330.90 597.75,329.58 C598.90,328.25 599.60,326.94 599.32,326.65 C599.03,326.37 599.38,324.42 600.10,322.32 C600.81,320.22 601.49,317.90 601.62,317.17 C602.24,313.53 603.66,312.26 605.48,313.34 ZM 247.27 473.87 C247.32,473.86 247.37,473.86 247.41,473.85 C247.32,473.87 247.22,473.89 247.13,473.91 C225.63,479.12 218.62,476.90 221.90,465.92 C223.64,460.14 230.00,449.38 234.98,443.82 L 239.53 438.74 L 246.26 444.55 C249.95,447.75 253.19,451.07 253.44,451.93 C253.96,453.72 256.00,468.47 256.00,470.46 C256.00,471.06 254.18,471.93 250.97,472.89 C252.28,472.43 253.18,471.97 253.31,471.62 C253.91,470.06 252.37,452.41 251.52,451.04 C251.14,450.42 249.18,448.82 247.17,447.47 C245.15,446.12 242.53,444.32 241.35,443.45 C239.33,441.98 238.98,442.08 235.55,445.09 C233.55,446.85 231.25,449.69 230.44,451.40 C229.64,453.10 227.43,457.20 225.52,460.50 C221.67,467.17 221.19,470.45 223.65,473.17 C225.00,474.66 226.84,475.00 233.49,475.00 C237.99,475.00 244.19,474.49 247.27,473.87 ZM 651.23 423.29 C649.69,423.12 645.53,423.15 640.50,423.39 C631.45,423.81 629.48,423.71 632.50,422.96 C646.24,419.53 658.52,414.05 671.00,405.76 C680.45,399.48 682.30,397.76 692.79,385.50 C697.49,380.00 702.28,374.43 703.42,373.11 L 704.92 371.39 C705.38,372.63 704.42,374.02 700.65,378.29 C697.82,381.49 695.05,384.89 694.50,385.84 C692.83,388.71 675.93,405.19 674.42,405.41 C673.65,405.52 670.99,407.14 668.50,409.00 C666.01,410.86 663.42,412.49 662.74,412.61 C660.05,413.11 645.61,420.91 647.32,420.96 C648.32,420.98 649.79,421.64 650.57,422.43 C650.90,422.76 651.13,423.03 651.23,423.29 ZM 436.35 681.50 C436.81,681.61 437.61,681.12 439.33,679.97 C445.06,676.13 460.48,669.09 467.05,667.32 C471.97,666.00 477.30,665.60 489.50,665.65 C503.45,665.71 506.72,666.04 515.00,668.29 C520.25,669.72 527.87,672.75 533.32,675.56 C529.76,673.83 526.73,672.61 526.09,672.68 C525.32,672.76 523.52,672.39 522.09,671.84 C520.67,671.30 514.51,669.80 508.41,668.50 C498.27,666.35 496.07,666.22 482.91,666.97 C470.98,667.65 467.25,668.26 461.25,670.51 C457.26,672.01 454.00,673.59 454.00,674.04 C454.00,674.48 452.31,675.38 450.25,676.03 C448.19,676.68 444.82,678.29 442.77,679.60 C439.38,681.78 437.39,682.40 436.35,681.50 ZM 618.48 289.15 C618.13,291.55 617.43,295.71 616.92,298.39 C616.41,301.07 616.00,310.41 616.00,319.14 C616.00,327.86 615.65,335.00 615.21,335.00 C614.78,335.00 612.98,330.61 611.21,325.25 C609.71,320.72 608.59,317.58 607.73,315.60 C608.23,316.28 608.75,317.10 609.27,318.06 C610.80,320.82 612.42,322.86 612.87,322.58 C613.32,322.30 613.96,316.67 614.29,310.07 C614.86,298.92 616.48,290.00 617.94,290.00 C618.13,290.00 618.33,289.67 618.48,289.15 ZM 215.94 702.44 C219.19,701.81 221.62,701.24 222.07,700.96 C223.01,700.38 222.59,699.28 220.42,696.69 C208.29,682.21 194.15,663.15 195.18,662.65 C195.36,662.57 213.95,662.63 236.50,662.79 L 266.19 663.00 L 239.21 663.21 C198.28,663.52 197.45,663.63 200.32,668.32 C200.97,669.38 201.95,670.98 202.50,671.89 C204.04,674.42 209.30,681.23 211.25,683.22 C212.21,684.20 213.01,685.34 213.02,685.75 C213.02,686.16 215.46,689.16 218.43,692.40 C223.74,698.22 224.41,700.44 221.16,701.42 C220.75,701.54 218.72,701.93 215.94,702.44 ZM 522.32 773.76 C510.76,777.74 492.37,782.75 491.53,781.84 C491.35,781.65 495.47,776.78 500.67,771.00 C505.87,765.23 512.88,756.45 516.25,751.50 C519.62,746.55 522.65,742.28 522.99,742.00 C523.84,741.30 525.24,739.30 527.27,735.85 C525.30,739.19 523.91,741.21 523.05,742.00 C522.75,742.28 522.35,743.40 522.16,744.50 C521.98,745.60 520.93,747.46 519.84,748.64 C518.75,749.82 517.75,751.47 517.63,752.31 C517.42,753.72 513.41,758.72 506.01,766.78 C504.35,768.58 503.00,770.52 503.00,771.09 C503.00,771.66 501.65,773.27 500.00,774.65 C498.35,776.04 497.00,777.58 497.00,778.07 C497.00,780.07 511.43,777.33 522.32,773.76 ZM 251.37 517.96 L 205.71 517.75 C157.03,517.53 149.81,517.69 148.98,519.00 C147.62,521.15 147.78,526.55 149.55,538.26 C150.40,543.89 151.52,551.88 152.05,556.00 C152.40,558.76 153.43,563.69 154.67,568.69 C153.29,563.94 152.15,560.11 151.89,559.50 C150.86,557.08 148.38,541.12 147.52,531.50 C147.18,527.65 146.68,522.53 146.41,520.12 L 145.91 515.73 L 149.20 516.45 C151.02,516.84 177.02,517.36 207.00,517.60 ZM 538.11 298.44 C538.69,297.94 538.99,297.49 538.99,297.11 C538.95,293.47 521.97,265.98 512.51,253.78 C512.60,253.74 512.69,253.69 512.79,253.63 C513.74,253.04 522.00,262.79 522.00,264.50 C522.00,264.82 522.84,266.30 523.87,267.79 C534.26,282.85 540.38,294.23 539.53,296.89 C539.41,297.30 538.89,297.84 538.11,298.44 ZM 312.16 725.77 C327.99,721.69 343.78,717.31 346.50,715.99 C347.60,715.45 353.67,713.25 360.00,711.08 C366.33,708.92 375.32,705.68 379.99,703.89 C384.63,702.12 386.71,701.30 387.13,700.76 C388.96,701.95 387.62,703.34 383.00,704.52 C380.52,705.16 377.06,706.42 375.30,707.34 C373.54,708.25 371.32,709.00 370.37,709.00 C369.41,709.00 366.80,709.85 364.57,710.89 C362.33,711.93 356.67,713.77 352.00,714.99 C347.33,716.20 339.67,718.31 335.00,719.66 C329.33,721.31 320.87,723.56 312.16,725.77 ZM 724.09 583.66 C724.97,579.98 725.64,576.55 726.07,573.47 C726.68,569.10 727.33,565.27 727.53,564.95 C728.63,563.17 731.95,532.65 732.20,522.00 L 732.50 509.50 L 732.48 527.00 C732.45,547.78 731.11,557.72 724.09,583.66 ZM 593.28 638.35 C576.43,638.64 564.72,639.01 564.25,639.31 C563.38,639.87 563.00,643.28 563.00,650.42 L 563.00 660.73 L 567.64 661.36 C570.19,661.71 591.49,662.00 614.97,662.00 C624.57,662.00 633.50,662.05 640.73,662.13 C632.42,662.05 621.80,662.01 610.32,662.04 C584.32,662.10 562.68,661.92 562.23,661.64 C561.78,661.36 561.52,656.04 561.65,649.82 L 561.88 638.50 ZM 254.00 482.64 C253.11,482.88 252.07,483.22 250.83,483.63 C250.52,483.73 250.19,483.84 249.85,483.96 C244.85,485.60 239.38,486.51 232.74,486.80 C221.93,487.28 218.77,486.46 214.60,482.10 C212.36,479.77 211.89,478.23 211.50,471.93 C211.38,470.06 211.30,468.65 211.32,467.43 C211.36,468.14 211.45,468.92 211.57,469.84 C212.48,476.71 215.35,480.79 221.47,483.94 C228.27,487.44 238.38,487.48 249.36,484.04 C251.28,483.44 252.78,482.94 254.00,482.64 ZM 213.62 745.37 C214.44,745.26 215.24,745.14 216.00,745.02 C222.25,744.03 245.54,739.83 257.50,737.53 C261.90,736.69 266.94,736.00 268.69,736.00 C270.45,736.00 272.12,735.61 272.41,735.14 C272.12,735.61 270.53,736.00 268.88,736.00 C267.22,736.00 264.89,736.54 263.68,737.21 C262.48,737.87 259.02,738.74 256.00,739.14 C252.98,739.54 247.12,740.57 243.00,741.43 C236.63,742.76 232.30,743.38 213.62,745.37 ZM 512.24 253.43 C511.36,252.30 510.55,251.31 509.83,250.50 C507.39,247.75 503.20,242.62 500.52,239.09 L 495.64 232.69 L 500.07 233.39 C502.51,233.78 504.93,234.53 505.45,235.05 C505.83,235.43 506.95,235.76 508.22,235.91 C508.00,235.89 507.76,235.87 507.53,235.85 C503.45,235.56 502.49,235.81 502.21,237.23 C501.87,238.93 504.89,243.51 510.20,249.37 C511.69,251.00 512.63,252.79 512.30,253.33 C512.28,253.36 512.26,253.39 512.24,253.43 ZM 272.54 464.94 C272.24,465.41 270.63,466.28 268.96,466.87 C266.67,467.66 265.81,467.63 265.53,466.71 C264.94,464.83 264.31,459.00 264.69,459.00 C266.03,459.00 272.97,464.25 272.54,464.94 ZM 700.94 560.22 C698.02,575.51 694.12,589.95 690.44,598.63 C690.54,598.20 690.56,597.89 690.45,597.79 C689.71,597.04 693.51,582.95 695.79,578.00 C697.70,573.86 699.38,568.07 700.94,560.22 ZM 73.28 662.23 C72.56,664.68 71.58,670.88 70.99,677.00 C69.79,689.51 70.38,699.88 72.70,707.78 C72.02,705.74 71.53,703.76 71.34,702.08 C70.99,699.01 70.26,696.21 69.73,695.87 C68.29,694.93 68.25,679.08 69.68,678.20 C70.32,677.80 71.16,674.56 71.54,670.99 C71.88,667.86 72.62,664.20 73.28,662.23 ZM 262.88 551.00 C262.90,565.53 263.33,578.19 264.23,589.48 C263.43,580.28 262.94,570.63 262.82,561.19 C262.71,552.78 262.26,545.66 261.81,545.39 C260.54,544.60 260.82,529.23 262.11,528.80 C262.30,528.73 262.45,528.58 262.56,528.33 C262.74,533.91 262.87,542.29 262.88,551.00 ZM 303.39 465.42 C302.70,467.23 301.44,467.32 298.25,465.78 C296.01,464.70 296.02,464.67 299.44,462.35 C301.34,461.06 303.14,460.00 303.45,460.00 C304.19,460.00 304.15,463.44 303.39,465.42 ZM 303.61 402.82 C304.35,406.50 303.76,406.61 299.06,403.72 L 295.62 401.60 L 298.93 400.25 C302.78,398.68 302.79,398.68 303.61,402.82 ZM 319.68 434.83 C318.41,436.02 317.16,437.00 316.91,437.00 C316.66,437.00 316.62,435.20 316.83,433.00 C317.25,428.55 317.91,428.14 320.34,430.83 C321.89,432.54 321.85,432.79 319.68,434.83 ZM 270.20 403.40 C265.98,405.58 265.20,405.42 265.76,402.50 C266.26,399.88 269.11,399.15 271.90,400.91 C272.97,401.60 272.59,402.16 270.20,403.40 ZM 251.57 429.24 C251.88,429.55 251.99,431.46 251.82,433.49 L 251.50 437.19 L 249.23 434.76 L 246.97 432.34 L 248.99 430.51 C250.10,429.50 251.26,428.93 251.57,429.24 ZM 261.28 710.09 C255.32,711.87 246.67,713.79 241.33,714.60 C241.75,714.46 242.00,714.30 242.00,714.13 C242.00,712.85 250.60,710.66 253.07,711.31 C254.24,711.61 257.29,711.25 259.85,710.50 C260.30,710.36 260.78,710.23 261.28,710.09 ZM 369.19 494.42 L 330.14 494.48 C334.05,494.41 337.00,494.11 337.00,493.75 C337.00,493.34 338.12,493.00 339.50,493.00 C340.88,493.00 342.00,493.34 342.00,493.75 C342.00,494.04 353.09,494.29 369.19,494.42 ZM 379.99 698.86 C366.53,697.71 334.93,698.09 316.99,699.48 C335.86,697.84 368.00,697.37 379.99,698.86 ZM 702.48 641.71 C709.27,627.57 715.37,612.45 719.74,598.94 C715.32,613.22 709.70,627.20 702.48,641.71 ZM 545.98 620.86 C545.99,618.88 545.99,616.85 545.98,614.75 C545.98,578.31 545.64,548.02 545.23,547.43 C545.87,548.35 546.09,585.84 545.98,620.86 ZM 413.69 706.55 C415.45,706.20 418.90,706.34 425.63,706.97 C426.84,707.08 428.01,707.20 429.12,707.30 C426.77,707.12 424.04,706.95 421.50,706.85 ZM 687.07 606.88 C687.02,607.03 687.00,607.15 687.00,607.22 C687.00,608.27 685.39,612.72 683.11,618.27 C684.06,615.72 685.06,612.84 686.06,609.76 C686.37,608.84 686.71,607.85 687.07,606.88 ZM 562.90 327.75 C563.39,326.90 563.88,326.05 564.35,325.19 C567.68,319.14 569.73,315.26 570.78,312.81 C569.30,316.62 566.32,322.16 562.90,327.75 ZM 675.18 635.95 L 674.42 637.50 L 669.75 637.54 C673.86,637.24 674.49,636.75 675.18,635.95 ZM 192.27 703.70 C193.99,705.47 195.28,706.00 197.00,705.67 C198.38,705.41 204.29,704.42 210.15,703.47 C210.40,703.43 210.65,703.39 210.89,703.34 C203.76,704.60 195.46,706.00 194.83,706.00 C194.60,706.00 193.50,705.00 192.27,703.70 ZM 306.19 658.93 C306.14,646.76 306.15,630.58 306.22,613.11 C306.45,560.17 306.66,549.06 307.74,547.25 C306.66,549.07 306.45,560.24 306.24,613.61 C306.17,630.96 306.16,646.92 306.19,658.93 ZM 417.82 667.39 C417.93,655.77 418.00,638.29 418.00,618.81 C418.00,620.57 418.00,622.29 418.00,623.96 C418.00,644.74 418.00,658.47 417.82,667.39 ZM 529.42 243.68 C536.89,246.74 544.28,250.17 551.51,253.93 C545.18,250.69 536.74,246.80 529.42,243.68 ZM 469.05 379.61 C465.20,385.14 461.81,390.95 458.56,397.47 C459.95,394.65 461.62,391.48 463.53,388.05 C464.91,385.58 466.84,382.66 469.05,379.61 ZM 645.99 242.26 C639.31,251.34 632.10,261.87 627.14,269.72 C628.86,266.96 630.85,263.89 633.13,260.50 C637.54,253.93 641.82,247.87 645.99,242.26 ZM 620.55 437.36 C614.70,439.27 608.70,441.64 604.97,443.45 C608.65,441.66 614.54,439.33 620.10,437.50 C626.82,435.30 633.17,432.93 638.43,430.70 C633.35,432.97 628.18,434.86 620.55,437.36 ZM 620.80 281.13 C619.97,283.26 619.18,285.79 618.75,287.75 C618.75,287.69 618.76,287.63 618.77,287.57 C618.90,285.96 619.56,283.84 620.80,281.13 ZM 678.96 627.88 C678.32,629.31 677.67,630.73 677.02,632.12 C677.13,631.26 677.78,629.75 678.55,628.56 C678.68,628.36 678.82,628.14 678.96,627.88 ZM 508.72 235.96 C509.04,235.99 509.37,236.00 509.70,236.00 C511.48,236.00 512.94,236.43 513.00,236.97 C512.76,236.61 510.94,236.20 508.72,235.96 ZM 127.50 747.52 C122.31,746.61 117.75,745.59 113.61,744.39 C117.78,745.59 122.34,746.59 127.50,747.46 C129.15,747.73 131.22,747.96 133.63,748.15 C131.04,747.99 128.94,747.78 127.50,747.52 ZM 667.67 216.24 C664.09,220.11 660.26,224.41 656.91,228.35 C660.54,223.99 664.12,219.96 667.67,216.24 ZM 707.03 519.76 C706.37,523.02 705.68,528.24 704.48,537.41 C704.29,538.84 704.09,540.37 703.88,542.00 C703.49,545.05 703.03,548.14 702.53,551.24 C703.01,548.23 703.47,544.99 703.94,541.50 C704.13,540.05 704.31,538.69 704.48,537.41 C705.66,528.25 706.34,523.03 707.03,519.76 C708.03,514.93 708.99,514.46 711.59,511.91 C709.04,514.41 708.03,515.04 707.03,519.76 ZM 454.51 407.14 C454.12,408.82 454.04,410.39 454.24,412.24 C454.09,411.22 454.00,410.36 454.00,409.81 C454.00,409.17 454.17,408.27 454.51,407.14 ZM 434.03 707.82 C436.20,708.07 437.59,708.25 437.66,708.33 C437.67,708.33 437.67,708.38 437.68,708.46 L 434.21 707.85 C434.15,707.84 434.09,707.83 434.03,707.82 ZM 304.65 701.16 C302.28,701.70 297.03,702.66 292.00,703.48 C290.92,703.66 289.80,703.85 288.65,704.05 C289.80,703.84 290.92,703.65 292.00,703.47 C296.65,702.69 301.98,701.72 304.65,701.16 ZM 435.65 680.25 C435.39,679.29 435.25,650.91 435.34,617.19 C435.25,650.91 435.40,679.31 435.67,680.30 C435.68,680.33 435.68,680.35 435.69,680.38 ZM 382.48 816.05 C380.60,815.78 378.55,815.46 376.48,815.12 C378.37,815.42 380.38,815.73 382.50,816.04 C386.33,816.60 390.36,817.01 395.27,817.30 C390.34,817.01 386.29,816.60 382.48,816.05 ZM 673.83 690.32 C675.30,688.20 677.25,685.25 679.90,681.14 C678.77,682.91 677.61,684.70 676.43,686.50 C675.59,687.78 674.68,689.11 673.83,690.32 ZM 262.29 522.80 L 261.57 518.41 L 262.17 521.77 C262.21,521.99 262.25,522.34 262.29,522.80 ZM 452.46 518.03 L 439.12 518.16 L 439.12 518.14 ZM 544.98 681.00 C544.94,681.00 544.88,680.99 544.80,680.97 C544.93,680.91 545.06,680.55 545.17,679.84 C545.11,680.60 545.04,681.00 544.98,681.00 ZM 658.30 662.64 C658.31,662.64 658.31,662.64 658.31,662.65 C658.71,663.04 657.84,665.20 656.73,667.23 C657.81,665.23 658.65,663.10 658.30,662.64 ZM 579.06 411.00 C579.38,414.29 579.78,417.43 580.19,419.81 C579.75,417.33 579.37,414.25 579.06,411.00 ZM 259.55 485.03 C260.60,486.93 261.73,489.99 263.53,494.65 C261.73,490.00 260.59,486.94 259.55,485.03 ZM 160.47 589.50 C160.44,589.36 160.40,589.19 160.35,588.99 C160.41,589.20 160.44,589.35 160.46,589.42 C160.59,590.01 161.25,591.85 161.92,593.50 C161.25,591.85 160.59,590.05 160.47,589.50 ZM 113.61 744.39 C110.14,743.38 106.94,742.22 103.92,740.88 C106.93,742.21 110.12,743.37 113.61,744.39 ZM 268.84 622.01 C268.93,622.44 269.03,622.86 269.13,623.29 C269.99,627.08 270.69,630.60 271.13,633.23 C270.69,630.60 269.99,627.08 269.12,623.29 C269.03,622.87 268.93,622.44 268.84,622.01 Z" fill="rgb(15,85,180)"/>
<path d="M 382.50 816.04 C368.31,813.96 358.89,812.07 357.50,811.04 C356.95,810.63 353.36,809.52 349.51,808.58 C316.14,800.37 277.42,782.06 251.81,762.36 C246.47,758.25 245.95,757.56 247.69,756.92 C250.26,755.97 276.71,751.00 279.20,751.00 C280.24,751.00 283.56,752.58 286.57,754.50 C301.89,764.30 335.41,778.37 351.00,781.54 C354.42,782.23 354.30,782.04 345.84,773.38 C333.96,761.20 321.00,745.00 321.00,742.32 C321.00,741.82 322.47,740.87 324.27,740.22 C330.10,738.11 343.43,734.95 344.60,735.40 C345.22,735.64 349.05,740.26 353.10,745.67 C370.35,768.69 388.58,784.15 405.00,789.70 L 411.50 791.89 L 412.00 749.20 L 412.50 706.50 L 421.50 706.85 C426.45,707.05 432.17,707.50 434.21,707.85 L 437.93 708.50 L 438.28 748.24 C438.48,770.09 438.93,788.26 439.29,788.62 C441.26,790.59 459.04,779.44 469.78,769.50 C476.45,763.32 486.26,751.65 493.68,741.05 C498.29,734.47 503.02,726.19 510.29,712.00 C514.16,704.44 517.25,699.56 518.10,699.64 C521.24,699.96 529.76,702.41 533.74,704.15 C536.07,705.17 538.32,706.01 538.74,706.02 C539.16,706.02 540.13,706.43 540.89,706.91 C542.00,707.61 540.82,710.59 535.04,721.64 C528.47,734.19 524.66,740.63 522.99,742.00 C522.65,742.28 519.62,746.55 516.25,751.50 C512.88,756.45 505.87,765.23 500.67,771.00 C495.47,776.78 491.35,781.65 491.53,781.84 C492.59,782.98 521.43,774.76 529.50,771.00 C533.65,769.07 542.94,765.25 549.00,762.97 C550.92,762.24 553.69,760.83 555.15,759.83 C556.61,758.82 558.07,758.00 558.38,758.00 C558.70,758.00 561.56,756.36 564.73,754.36 C591.36,737.57 615.37,717.31 635.09,695.00 C644.25,684.63 653.00,673.40 653.00,672.02 C653.00,671.46 653.37,671.00 653.82,671.00 C655.00,671.00 659.08,663.42 658.31,662.65 C657.96,662.29 638.45,662.00 614.97,662.00 C591.49,662.00 570.19,661.71 567.64,661.36 L 563.00 660.73 L 563.00 650.42 C563.00,643.28 563.38,639.87 564.25,639.31 C564.94,638.86 590.01,638.28 619.96,638.00 L 674.42 637.50 L 675.64 635.00 C680.91,624.16 687.00,609.27 687.00,607.22 C687.00,606.70 688.30,603.40 689.89,599.89 C695.17,588.19 701.03,563.95 703.88,542.00 C707.40,514.85 707.00,516.41 711.59,511.91 L 715.80 507.78 L 724.15 508.64 L 732.50 509.50 L 732.20 522.00 C731.95,532.65 728.63,563.17 727.53,564.95 C727.33,565.27 726.68,569.10 726.07,573.47 C722.72,597.50 704.89,641.71 687.32,669.50 C676.72,686.26 672.68,692.31 670.62,694.50 C669.59,695.60 666.74,699.18 664.30,702.46 C651.42,719.72 621.74,747.30 600.00,762.19 C586.32,771.55 565.08,783.93 553.50,789.28 C534.94,797.86 506.13,807.63 489.50,810.98 C486.20,811.65 480.80,812.81 477.50,813.56 C463.15,816.81 447.63,818.00 421.04,817.90 C401.36,817.82 391.40,817.34 382.50,816.04 ZM 127.50 747.46 C111.24,744.73 100.90,740.68 90.37,732.90 C85.40,729.23 80.00,723.29 80.00,721.48 C80.00,721.03 79.37,719.95 78.59,719.08 C71.69,711.35 69.08,696.87 70.99,677.00 C71.65,670.12 72.80,663.15 73.54,661.50 C74.28,659.85 75.38,656.58 75.98,654.24 C77.30,649.12 84.91,632.11 89.41,624.20 C99.19,607.03 113.17,589.81 115.46,592.13 C115.66,592.33 116.80,597.99 117.99,604.69 L 120.15 616.89 L 117.38 621.69 C115.86,624.34 113.58,627.88 112.33,629.57 C108.60,634.58 102.08,649.37 99.97,657.63 C97.60,666.89 97.40,679.61 99.51,686.72 C103.39,699.80 116.61,712.30 130.50,716.03 C132.15,716.47 136.88,717.88 141.00,719.15 C148.03,721.33 150.07,721.47 173.50,721.41 C193.88,721.36 201.09,720.95 212.50,719.20 C220.20,718.01 228.07,716.58 229.99,716.02 C231.91,715.46 235.29,715.00 237.49,714.99 C241.10,714.99 253.71,712.38 261.50,710.02 C267.55,708.20 281.77,705.15 292.00,703.48 C297.77,702.54 303.85,701.41 305.50,700.95 C316.05,698.07 377.43,697.09 385.49,699.68 C388.40,700.61 388.24,700.73 379.99,703.89 C375.32,705.68 366.33,708.92 360.00,711.08 C353.67,713.25 347.60,715.45 346.50,715.99 C341.22,718.55 286.81,732.62 278.22,733.65 C275.32,734.00 272.70,734.67 272.41,735.14 C272.12,735.61 270.45,736.00 268.69,736.00 C266.94,736.00 261.90,736.69 257.50,737.53 C245.54,739.83 222.25,744.03 216.00,745.02 C193.31,748.61 142.73,750.01 127.50,747.46 ZM 191.91 703.32 C183.77,694.45 171.96,677.60 166.30,666.77 C165.52,665.27 164.48,663.80 164.00,663.50 C162.76,662.74 145.70,627.92 142.49,619.63 C141.03,615.85 138.97,610.00 137.92,606.63 C136.86,603.26 135.60,599.60 135.12,598.50 C132.40,592.26 126.87,569.55 124.64,555.50 C121.76,537.38 121.06,530.47 120.42,513.89 C118.96,476.32 124.19,438.38 135.51,404.50 C139.75,391.81 140.69,389.45 147.43,374.66 C149.39,370.35 151.00,366.61 151.00,366.34 C151.00,366.08 153.02,362.52 155.50,358.45 C157.98,354.37 160.00,350.78 160.00,350.47 C160.00,349.35 170.39,332.66 175.66,325.33 C191.64,303.05 223.07,270.89 245.50,253.86 C253.15,248.06 267.93,238.29 275.02,234.36 C278.03,232.69 283.88,229.38 288.00,227.00 C304.58,217.43 336.45,205.01 355.00,200.89 C356.92,200.46 361.20,199.40 364.50,198.54 C382.31,193.88 416.21,191.49 442.50,193.04 C460.58,194.11 474.27,195.54 480.00,196.97 C481.92,197.45 488.23,198.83 494.00,200.05 C507.73,202.94 521.86,207.21 535.61,212.62 C541.72,215.03 547.16,217.00 547.71,217.00 C549.16,217.00 585.34,235.48 589.73,238.46 C591.79,239.86 593.83,241.00 594.28,241.00 C594.72,241.00 597.98,243.14 601.51,245.75 C605.05,248.36 609.12,251.34 610.57,252.37 C613.93,254.76 613.42,258.00 608.65,264.70 C606.77,267.34 604.38,271.09 603.36,273.03 C602.33,274.98 600.34,278.03 598.94,279.82 L 596.39 283.07 L 589.83 278.10 C571.10,263.93 549.81,251.88 527.91,243.07 C520.98,240.28 514.79,238.00 514.16,238.00 C513.52,238.00 513.00,237.55 513.00,237.00 C513.00,236.45 511.52,236.00 509.70,236.00 C507.89,236.00 505.97,235.57 505.45,235.05 C504.93,234.53 502.51,233.78 500.07,233.39 L 495.64 232.69 L 500.52 239.09 C503.20,242.62 507.39,247.75 509.83,250.50 C518.23,259.97 538.95,293.09 538.99,297.11 C538.99,298.14 536.71,299.74 532.75,301.50 C529.31,303.03 524.58,305.17 522.24,306.26 C518.80,307.85 517.69,307.99 516.49,306.99 C515.67,306.31 515.00,305.27 515.00,304.69 C515.00,302.99 507.09,290.18 501.04,282.08 C497.99,278.00 493.97,272.60 492.11,270.08 C486.57,262.59 472.34,249.35 463.63,243.58 C456.39,238.79 447.82,234.56 441.25,232.55 L 439.00 231.87 L 439.00 273.43 L 439.00 315.00 L 470.94 315.00 C489.02,315.00 503.13,315.39 503.44,315.91 C504.08,316.93 500.31,320.14 493.61,324.30 C491.13,325.83 486.15,329.77 482.53,333.05 L 475.96 339.00 L 457.48 339.00 L 439.00 339.00 L 439.00 368.62 L 439.00 398.25 L 436.32 404.37 C434.85,407.74 433.12,411.17 432.47,412.00 C431.34,413.45 424.50,426.75 416.18,443.67 C413.97,448.16 411.90,451.57 411.58,451.25 C411.26,450.93 411.00,425.32 411.00,394.33 L 411.00 338.00 L 355.25 338.14 C324.59,338.22 277.01,338.55 249.52,338.89 L 199.53 339.50 L 193.49 348.62 C181.88,366.15 167.65,396.00 160.68,417.50 C153.69,439.02 147.07,473.35 147.02,488.25 L 147.00 494.00 L 198.75 494.00 L 250.50 494.01 L 254.38 501.57 C261.87,516.16 272.06,524.15 283.50,524.39 L 288.50 524.50 L 288.76 603.34 C288.90,646.70 288.65,683.58 288.20,685.30 C287.45,688.22 287.08,687.61 282.45,675.75 L 277.50 663.08 L 236.50 662.79 C213.95,662.63 195.36,662.57 195.18,662.65 C194.15,663.15 208.29,682.21 220.42,696.69 C222.59,699.28 223.01,700.38 222.07,700.96 C221.37,701.39 216.01,702.52 210.15,703.47 C204.29,704.42 198.38,705.41 197.00,705.67 C195.16,706.02 193.81,705.40 191.91,703.32 ZM 271.55 637.79 C271.94,637.39 270.85,630.87 269.13,623.29 C264.86,604.52 262.91,582.01 262.88,551.00 C262.86,536.97 262.55,523.82 262.17,521.77 L 261.50 518.04 L 207.00 517.60 C177.02,517.36 151.02,516.84 149.20,516.45 L 145.91 515.73 L 146.41 520.12 C146.68,522.53 147.18,527.65 147.52,531.50 C148.38,541.12 150.86,557.08 151.89,559.50 C152.58,561.14 159.69,586.00 160.47,589.50 C160.59,590.05 161.25,591.85 161.92,593.50 C162.60,595.15 164.75,600.77 166.70,605.98 C170.37,615.78 177.37,630.77 179.04,632.44 C179.57,632.97 180.00,634.12 180.00,635.00 C180.00,638.83 181.03,638.91 226.57,638.70 C250.91,638.59 271.15,638.18 271.55,637.79 ZM 411.00 273.50 C411.00,250.12 410.85,231.00 410.66,231.00 C408.66,231.00 397.65,235.70 392.29,238.84 C378.57,246.88 367.85,256.36 354.86,271.91 C343.20,285.87 325.16,313.82 326.76,315.43 C327.08,315.74 346.16,316.00 369.17,316.00 L 411.00 316.00 L 411.00 273.50 ZM 303.82 308.00 C305.72,304.42 309.47,297.25 312.16,292.06 C314.85,286.87 320.72,277.42 325.20,271.06 C333.13,259.82 349.61,239.44 353.88,235.60 C357.17,232.64 356.49,231.66 351.63,232.33 C347.12,232.94 330.21,238.06 324.00,240.68 C314.12,244.85 303.82,249.88 298.00,253.38 C294.42,255.54 290.15,257.97 288.50,258.80 C286.85,259.63 281.29,263.27 276.15,266.90 C271.00,270.53 265.81,274.17 264.61,275.00 C256.40,280.65 244.10,290.78 236.14,298.47 C225.85,308.40 222.55,312.46 223.50,314.01 C223.92,314.68 237.17,314.93 262.25,314.76 L 300.37 314.50 L 303.82 308.00 ZM 306.45 680.73 C306.19,680.05 306.10,649.85 306.24,613.61 C306.47,556.21 306.69,547.62 308.00,546.98 C316.92,542.59 319.69,541.88 337.50,539.37 C354.89,536.92 386.02,538.84 395.00,542.91 C396.93,543.78 402.89,546.97 408.25,550.00 L 418.00 555.50 L 418.00 618.75 C418.00,653.54 417.77,682.00 417.49,682.00 C417.21,682.00 415.16,680.68 412.94,679.07 C403.04,671.90 384.26,666.48 365.50,665.39 C344.91,664.20 329.22,667.77 314.83,676.92 C309.60,680.26 306.76,681.54 306.45,680.73 ZM 435.67 680.30 C435.40,679.31 435.25,650.91 435.34,617.19 L 435.50 555.87 L 440.42 552.30 C447.62,547.08 459.20,542.12 468.42,540.31 C480.53,537.93 515.68,537.91 526.98,540.27 C535.33,542.02 543.80,545.34 545.23,547.43 C545.64,548.02 545.98,578.31 545.98,614.75 C546.00,667.10 545.74,681.00 544.75,680.98 C544.06,680.97 539.22,678.69 534.00,675.92 C528.52,673.01 520.48,669.78 515.00,668.29 C506.72,666.04 503.45,665.71 489.50,665.65 C477.30,665.60 471.97,666.00 467.05,667.32 C460.48,669.09 445.06,676.13 439.33,679.97 C436.36,681.96 436.13,681.98 435.67,680.30 ZM 563.88 612.32 C563.66,610.72 563.99,588.68 564.24,588.49 C566.96,586.45 589.32,572.08 591.45,570.99 C593.07,570.17 595.49,568.49 596.84,567.25 C598.19,566.01 601.75,563.31 604.76,561.25 C621.00,550.11 636.56,536.98 657.64,516.65 C671.44,503.34 687.59,485.64 689.83,481.37 C690.73,479.65 690.45,478.00 688.41,472.87 C685.36,465.23 685.68,460.16 689.69,452.23 C694.48,442.74 704.15,436.98 715.54,436.81 C722.29,436.72 734.64,442.32 738.23,447.11 C743.23,453.79 744.39,457.13 744.43,465.00 C744.48,477.07 739.46,484.58 727.00,491.08 C723.50,492.91 720.86,493.44 715.12,493.47 L 707.73 493.52 L 700.95 502.01 C683.46,523.92 658.89,548.64 639.17,564.18 C636.60,566.21 632.25,569.66 629.50,571.85 C620.37,579.13 597.70,594.38 583.00,603.12 C568.50,611.74 564.10,613.85 563.88,612.32 ZM 421.89 529.96 C420.45,529.57 417.19,528.02 414.64,526.53 C410.81,524.28 410.00,523.30 410.00,520.90 L 410.00 518.00 L 359.12 518.00 C319.61,518.00 308.01,517.72 307.21,516.75 C306.45,515.84 307.43,513.55 310.83,508.32 C313.40,504.37 316.41,499.64 317.52,497.82 L 319.54 494.50 L 372.52 494.41 C401.66,494.37 449.73,494.59 479.34,494.91 L 533.18 495.50 L 529.07 503.52 C526.51,508.49 523.54,512.67 521.23,514.52 L 517.50 517.50 L 478.31 517.82 L 439.12 518.14 L 438.81 520.78 C438.24,525.62 427.43,531.48 421.89,529.96 ZM 539.48 526.96 C539.10,526.35 540.81,521.72 543.29,516.67 C545.76,511.63 549.47,503.90 551.52,499.50 C553.57,495.10 561.11,479.58 568.28,465.00 C577.39,446.46 581.44,437.15 581.75,434.00 C581.99,431.52 581.44,425.90 580.51,421.50 C579.58,417.10 578.62,407.99 578.37,401.25 C577.88,388.11 578.43,386.74 582.24,391.58 C584.91,394.98 585.96,393.37 585.98,385.86 C586.02,374.31 588.14,359.42 590.96,351.00 C593.88,342.26 604.88,313.87 605.67,313.03 C606.48,312.16 607.96,315.43 611.21,325.25 C612.98,330.61 614.78,335.00 615.21,335.00 C615.65,335.00 616.00,327.86 616.00,319.14 C616.00,310.41 616.41,301.07 616.92,298.39 C617.43,295.70 618.13,291.53 618.49,289.13 C618.84,286.72 620.17,282.45 621.43,279.63 C624.41,272.95 640.14,249.58 651.46,235.00 C659.80,224.26 678.57,204.06 680.25,204.02 C680.66,204.01 681.05,210.64 681.10,218.75 C681.17,228.39 681.49,232.46 682.03,230.50 C682.48,228.85 684.01,222.77 685.42,217.00 C688.86,202.98 694.54,191.64 702.24,183.40 C721.68,162.62 772.57,125.85 819.86,98.43 C825.01,95.44 829.39,93.00 829.61,93.00 C829.82,93.00 830.00,95.33 830.00,98.18 C830.00,101.03 830.52,107.43 831.16,112.40 C833.51,130.75 828.99,159.62 819.48,187.00 C812.33,207.60 803.08,222.88 789.48,236.60 C782.35,243.79 780.00,245.42 768.48,251.15 C761.34,254.70 753.70,258.33 751.50,259.21 C747.80,260.69 747.71,260.81 750.26,260.90 C751.78,260.96 761.37,259.83 771.57,258.40 C781.78,256.97 790.37,256.04 790.68,256.34 C791.28,256.95 780.85,277.13 772.23,292.00 C762.39,309.00 752.34,323.34 744.14,332.11 C731.74,345.36 710.88,360.34 692.51,369.17 C684.63,372.96 684.57,373.02 689.00,372.48 C691.47,372.19 696.20,371.67 699.50,371.34 L 705.50 370.73 L 703.42 373.11 C702.28,374.43 697.49,380.00 692.79,385.50 C682.30,397.76 680.45,399.48 671.00,405.76 C658.52,414.05 646.24,419.53 632.50,422.96 C629.48,423.71 631.45,423.81 640.50,423.39 C647.10,423.08 652.20,423.13 651.84,423.49 C648.74,426.60 635.41,432.49 620.10,437.50 C612.66,439.94 604.65,443.29 602.10,445.03 C594.75,450.04 589.65,459.89 581.37,485.00 C577.08,498.00 570.31,510.53 565.00,515.31 C557.58,521.98 541.06,529.52 539.48,526.96 ZM 604.54 408.50 C619.99,380.76 628.99,366.38 659.28,321.00 C679.23,291.11 693.35,271.50 707.88,253.50 C726.71,230.18 750.47,202.26 766.96,184.08 C771.66,178.90 774.99,174.85 774.36,175.08 C772.32,175.82 749.99,196.85 730.45,216.42 C696.48,250.45 677.99,273.23 642.34,325.00 C632.06,339.93 614.05,372.85 603.77,395.50 C600.37,403.00 596.00,417.66 596.00,421.58 C596.00,423.92 595.68,424.41 604.54,408.50 ZM 277.03 514.25 C272.04,511.74 267.73,505.47 263.53,494.65 C258.08,480.58 258.76,481.10 249.36,484.04 C238.38,487.48 228.27,487.44 221.47,483.94 C215.35,480.79 212.48,476.71 211.57,469.84 C210.92,464.92 211.17,463.99 215.46,455.54 C217.99,450.57 222.51,443.60 225.52,440.05 C228.54,436.50 231.00,433.17 231.00,432.65 C231.00,432.14 228.86,429.27 226.25,426.28 C223.64,423.29 221.05,420.09 220.50,419.17 C214.89,409.79 213.00,405.59 211.96,400.29 C210.27,391.61 211.96,385.99 217.39,382.23 C221.02,379.72 222.11,379.50 230.92,379.50 C238.72,379.50 242.12,380.03 249.24,382.34 C254.05,383.90 258.49,385.00 259.11,384.80 C259.72,384.59 261.97,379.79 264.09,374.13 C268.25,363.06 271.14,358.79 276.86,355.26 C283.64,351.07 290.84,352.64 296.97,359.62 C300.05,363.13 306.52,375.31 308.85,382.00 C309.87,384.91 310.08,385.01 314.20,384.37 C316.57,384.00 318.73,383.42 319.00,383.09 C320.70,381.02 330.29,379.00 338.00,379.08 C347.91,379.18 353.18,381.40 356.32,386.79 C360.83,394.55 356.26,408.94 344.56,423.80 C337.76,432.43 337.78,432.78 345.24,442.01 C351.10,449.26 357.40,460.72 358.37,465.89 C359.71,473.06 356.49,479.11 348.46,484.48 C344.43,487.17 330.22,487.24 321.00,484.60 C309.55,481.33 309.30,481.34 308.48,485.15 C307.28,490.74 302.55,500.14 297.59,506.82 C290.97,515.74 284.58,518.05 277.03,514.25 ZM 286.65 504.53 C287.81,503.72 290.19,500.83 291.94,498.09 C295.42,492.67 301.30,478.29 300.54,477.07 C300.28,476.64 297.91,475.53 295.28,474.59 C292.65,473.65 289.72,472.46 288.76,471.94 C287.81,471.42 286.23,471.00 285.26,470.99 C282.82,470.99 268.00,477.04 268.00,478.04 C268.00,480.03 274.25,495.55 276.18,498.38 C279.37,503.02 282.21,506.00 283.45,506.00 C284.06,506.00 285.50,505.34 286.65,504.53 ZM 247.13 473.91 C252.68,472.57 256.00,471.28 256.00,470.46 C256.00,468.47 253.96,453.72 253.44,451.93 C253.19,451.07 249.95,447.75 246.26,444.55 L 239.53 438.74 L 234.98 443.82 C230.00,449.38 223.64,460.14 221.90,465.92 C218.62,476.90 225.63,479.12 247.13,473.91 ZM 346.36 474.08 C349.24,471.20 348.64,466.01 344.52,458.20 C340.51,450.61 332.20,440.15 330.11,440.06 C329.35,440.03 325.72,442.46 322.05,445.46 L 315.37 450.92 L 314.17 458.21 C313.50,462.22 312.70,466.69 312.39,468.14 C311.85,470.60 312.22,470.94 317.60,472.95 C329.21,477.29 342.62,477.82 346.36,474.08 ZM 272.54 464.94 C272.97,464.25 266.03,459.00 264.69,459.00 C264.31,459.00 264.94,464.83 265.53,466.71 C265.81,467.63 266.67,467.66 268.96,466.87 C270.63,466.28 272.24,465.41 272.54,464.94 ZM 303.39 465.42 C304.15,463.44 304.19,460.00 303.45,460.00 C303.14,460.00 301.34,461.06 299.44,462.35 C296.02,464.67 296.01,464.70 298.25,465.78 C301.44,467.32 302.70,467.23 303.39,465.42 ZM 293.84 454.80 C296.77,453.12 300.94,450.08 303.09,448.03 C307.17,444.15 307.21,443.99 307.33,432.00 C307.45,419.65 306.84,418.74 293.87,411.99 C284.59,407.16 283.85,407.20 274.06,413.05 C262.35,420.04 262.83,419.21 262.65,433.08 L 262.50 445.18 L 266.50 448.58 C268.70,450.44 273.42,453.55 277.00,455.48 C284.40,459.48 285.74,459.42 293.84,454.80 ZM 251.57 429.24 C251.26,428.93 250.10,429.50 248.99,430.51 L 246.97 432.34 L 249.23 434.76 L 251.50 437.19 L 251.82 433.49 C251.99,431.46 251.88,429.55 251.57,429.24 ZM 319.68 434.83 C321.85,432.79 321.89,432.54 320.34,430.83 C317.91,428.14 317.25,428.55 316.83,433.00 C316.62,435.20 316.66,437.00 316.91,437.00 C317.16,437.00 318.41,436.02 319.68,434.83 ZM 335.58 418.75 C342.26,410.25 348.00,398.93 348.00,394.25 C348.00,389.93 344.81,388.61 336.00,389.33 C330.73,389.76 313.56,394.23 312.15,395.55 C311.95,395.73 312.57,400.07 313.52,405.19 L 315.25 414.50 L 321.38 420.21 C324.74,423.35 328.04,425.93 328.69,425.96 C329.35,425.98 332.45,422.74 335.58,418.75 ZM 250.29 416.80 C252.59,414.91 253.39,412.94 254.85,405.72 C256.09,399.60 256.30,396.68 255.56,396.10 C253.92,394.81 242.18,391.23 235.35,389.94 C228.65,388.67 222.68,389.80 221.63,392.52 C220.10,396.52 228.31,413.16 235.54,420.71 L 239.90 425.25 L 243.70 422.18 C245.79,420.48 248.76,418.07 250.29,416.80 ZM 303.61 402.82 C302.79,398.68 302.78,398.68 298.93,400.25 L 295.62 401.60 L 299.06 403.72 C303.76,406.61 304.35,406.50 303.61,402.82 ZM 270.20 403.40 C272.59,402.16 272.97,401.60 271.90,400.91 C269.11,399.15 266.26,399.88 265.76,402.50 C265.20,405.42 265.98,405.58 270.20,403.40 ZM 292.45 392.39 C298.36,389.69 300.08,387.68 298.13,385.73 C297.51,385.11 297.00,383.61 297.00,382.40 C297.00,377.55 287.57,363.00 284.42,363.00 C282.14,363.00 277.30,369.73 274.28,377.11 C269.18,389.55 269.18,389.45 275.25,392.39 C281.94,395.63 285.39,395.63 292.45,392.39 ZM 447.76 489.00 C434.39,487.29 426.49,482.75 424.27,475.51 C421.80,467.47 426.93,458.63 448.26,434.23 L 457.03 424.21 L 455.51 418.39 C453.40,410.26 453.59,407.92 456.96,400.78 C464.03,385.83 471.62,374.68 482.87,362.75 C486.71,358.67 488.00,358.13 488.00,360.59 C488.00,361.49 493.20,357.22 500.07,350.67 C506.71,344.35 514.03,337.90 516.32,336.34 C518.62,334.79 523.42,331.42 527.00,328.86 C538.30,320.77 564.20,309.00 570.70,309.00 C572.82,309.00 571.71,311.82 564.35,325.19 C558.66,335.51 550.94,345.95 547.26,348.30 C545.54,349.40 545.67,352.00 547.45,352.00 C548.24,352.00 551.01,350.88 553.60,349.50 C556.18,348.12 558.66,347.00 559.10,347.00 C560.51,347.00 545.38,377.58 539.95,385.71 C529.56,401.27 515.67,417.25 506.67,424.00 C493.51,433.88 483.90,438.00 474.02,438.00 C468.61,438.00 468.20,438.19 462.92,443.25 C455.29,450.55 442.15,466.55 441.43,469.43 C440.64,472.59 442.49,475.85 445.81,477.15 C447.29,477.73 458.62,479.04 471.00,480.07 C483.38,481.09 498.67,482.39 505.00,482.96 C511.33,483.52 517.60,483.99 518.95,483.99 C524.12,484.01 519.16,485.76 510.75,486.90 C503.64,487.85 458.18,490.24 454.50,489.84 C453.95,489.79 450.92,489.41 447.76,489.00 ZM 700.06 423.50 C697.56,420.76 695.00,415.51 695.00,413.14 C695.00,411.20 696.66,409.61 705.29,403.25 C712.19,398.16 713.02,398.58 717.20,409.25 C719.20,414.34 720.98,420.00 721.17,421.83 L 721.50 425.17 L 711.69 425.33 C703.03,425.48 701.66,425.27 700.06,423.50 ZM 275.62 442.00 C272.90,438.99 272.00,437.12 272.00,434.46 C272.00,429.16 274.36,424.56 278.34,422.10 C283.26,419.06 288.23,420.04 293.25,425.03 C296.53,428.30 297.00,429.36 297.00,433.50 C297.00,437.67 296.53,438.70 293.12,442.12 C289.64,445.59 288.71,446.00 284.23,446.00 C279.67,446.00 278.92,445.65 275.62,442.00 Z" fill="rgb(251,253,253)"/>
</g>
</svg>